<svg width="33" height="31" viewBox="0 0 33 31" fill="none" xmlns="http://www.w3.org/2000/svg">
<path d="M25.2145 21.5772C27.8443 19.8206 29.6714 17.1877 29.28 13.9176C28.9013 10.7478 26.1301 8.46979 23.5726 6.91831C20.4634 5.02901 16.7034 3.95474 13.1568 3.28125C9.98615 2.68261 6.31419 1.98417 3.10725 2.87665C2.28046 3.10293 -0.0110594 4.79653 0.801527 2.67821C1.30152 1.31198 3.66919 0.708434 4.94709 0.50682C8.17941 -0.0223086 11.9139 0.525713 15.0721 1.18702C20.8496 2.43492 29.1719 4.97118 31.6957 10.9458C34.6338 17.7847 29.8529 24.1292 23.5525 26.6534C24.2925 27.5173 27.1876 28.1913 25.4976 29.9721C24.2708 31.2262 21.0119 30.0889 19.5456 29.7644C17.4025 29.24 10.9988 28.356 14.1783 24.8197C15.2173 23.6911 16.5822 22.725 17.7969 21.8594C19.4499 20.7553 20.9148 19.4508 22.7434 18.6097C24.5345 17.7937 24.8367 19.3847 23.7476 20.6011C23.4597 20.9021 20.6174 23.2352 20.768 23.4606C21.1819 23.9991 24.6885 21.9285 25.2145 21.5772C24.6885 21.9285 25.5526 21.3513 25.2145 21.5772Z" fill="#FF527D"/>
</svg>
