<svg width="56" height="56" viewBox="0 0 56 56" fill="none" xmlns="http://www.w3.org/2000/svg">
<path d="M55.6264 26.9554C50.5367 20.7543 39.7608 13.5177 28.0001 13.5177C16.1971 13.5177 5.42086 20.8035 0.373718 26.9554C-0.124573 27.5627 -0.124573 28.4374 0.373718 29.0447C5.58414 35.3958 16.3852 42.4826 28.0001 42.4826C40.0277 42.4826 50.7576 34.9767 55.6264 29.0449C56.1247 28.4374 56.1247 27.5627 55.6264 26.9554ZM39.1883 28.0001C39.1883 34.1693 34.1693 39.1884 28 39.1884C21.8305 39.1884 16.8116 34.169 16.8116 28.0001C16.8116 21.8308 21.8306 16.8117 28 16.8117C34.1698 16.8118 39.1883 21.8315 39.1883 28.0001ZM3.87196 28.0005C5.72578 26.0738 10.1957 21.9156 16.4704 19.2468C12.5326 24.421 12.5311 31.5748 16.4686 36.7509C11.6977 34.7289 7.26578 31.5342 3.87196 28.0005ZM39.5297 36.7533C43.4675 31.579 43.4689 24.4253 39.5316 19.2492C44.3022 21.2713 48.7342 24.466 52.1282 27.9995C50.2743 29.9265 45.8045 34.0844 39.5297 36.7533Z" fill="#FF527D"/>
<path d="M22.4001 28C22.4001 31.0879 24.9122 33.6 28.0001 33.6C31.0879 33.6 33.6001 31.0879 33.6001 28C33.6001 24.9121 31.0879 22.4 28.0001 22.4C24.9122 22.4 22.4001 24.9121 22.4001 28ZM30.306 28C30.306 29.2716 29.2715 30.3059 28.0001 30.3059C26.7286 30.3059 25.6942 29.2716 25.6942 28C25.6942 26.7285 26.7286 25.6941 28.0001 25.6941C29.2715 25.6941 30.306 26.7285 30.306 28Z" fill="#FF527D"/>
<path d="M28.0001 7.13726C28.9097 7.13726 29.6471 6.39981 29.6471 5.4902V1.64706C29.6471 0.737443 28.9097 0 28.0001 0C27.0905 0 26.353 0.737443 26.353 1.64706V5.4902C26.353 6.39981 27.0905 7.13726 28.0001 7.13726Z" fill="#FF527D"/>
<path d="M37.8275 9.34021C38.6172 9.79063 39.6234 9.51601 40.0742 8.72542L42.2661 4.88228C42.7168 4.09213 42.4417 3.08633 41.6514 2.63558C40.8611 2.18495 39.8555 2.46001 39.4047 3.25038L37.2128 7.09351C36.7622 7.88355 37.0374 8.88947 37.8275 9.34021Z" fill="#FF527D"/>
<path d="M15.9259 8.7254C16.3766 9.51555 17.3824 9.79072 18.1726 9.34008C18.9628 8.88945 19.2379 7.88353 18.7873 7.09338L16.5954 3.25025C16.1448 2.4601 15.1387 2.18493 14.3487 2.63556C13.5585 3.0862 13.2834 4.09211 13.734 4.88226L15.9259 8.7254Z" fill="#FF527D"/>
<path d="M28.0001 48.8628C27.0905 48.8628 26.353 49.6002 26.353 50.5099V54.353C26.353 55.2626 27.0905 56.0001 28.0001 56.0001C28.9097 56.0001 29.6471 55.2626 29.6471 54.353V50.5099C29.6471 49.6002 28.9097 48.8628 28.0001 48.8628Z" fill="#FF527D"/>
<path d="M18.1726 46.6601C17.3825 46.2095 16.3767 46.4846 15.9259 47.2747L13.734 51.1179C13.2834 51.908 13.5585 52.9139 14.3487 53.3646C15.139 53.8152 16.1448 53.5399 16.5954 52.7499L18.7873 48.9067C19.238 48.1166 18.9628 47.1107 18.1726 46.6601Z" fill="#FF527D"/>
<path d="M40.0742 47.2747C39.6236 46.4844 38.6174 46.2095 37.8275 46.6599C37.0374 47.1105 36.7622 48.1164 37.2128 48.9066L39.4047 52.7497C39.8553 53.5399 40.8611 53.8151 41.6514 53.3645C42.4416 52.9139 42.7168 51.908 42.2661 51.1178L40.0742 47.2747Z" fill="#FF527D"/>
</svg>
