<svg width="28" height="28" viewBox="0 0 28 28" fill="none" xmlns="http://www.w3.org/2000/svg">
<path d="M23.8995 4.10047C21.2552 1.45627 17.7395 0 14 0C10.2605 0 6.74477 1.45627 4.10047 4.10047C1.45627 6.74477 0 10.2605 0 14C0 17.7395 1.45627 21.2552 4.10047 23.8995C6.74477 26.5437 10.2605 28 14 28C17.7395 28 21.2552 26.5437 23.8995 23.8995C26.5437 21.2552 28 17.7395 28 14C28 10.2605 26.5437 6.74477 23.8995 4.10047ZM14 5.52344C15.357 5.52344 16.4609 6.62741 16.4609 7.98438C16.4609 9.34134 15.357 10.4453 14 10.4453C12.643 10.4453 11.5391 9.34134 11.5391 7.98438C11.5391 6.62741 12.643 5.52344 14 5.52344ZM17.5 21.9297H10.3906V20.2891H11.5391V13.7266H10.4453V12.0859H16.4609V20.2891H17.5V21.9297Z" fill="#FF527D"/>
</svg>
