<svg width="104" height="104" viewBox="0 0 104 104" fill="none" xmlns="http://www.w3.org/2000/svg">
<path d="M52.0746 83.7573C71.8641 83.7573 87.9067 67.7148 87.9067 47.9253C87.9067 28.1358 71.8641 12.0933 52.0746 12.0933C32.2852 12.0933 16.2426 28.1358 16.2426 47.9253C16.2426 67.7148 32.2852 83.7573 52.0746 83.7573Z" fill="url(#paint0_linear)"/>
<g filter="url(#filter0_d)">
<path d="M52.0746 96C25.6485 96 4 74.5008 4 47.9254C4 21.4992 25.6485 0 52.0746 0C78.5008 0 100 21.4992 100 47.9254C100 74.5008 78.5008 96 52.0746 96ZM52.0746 4.6283C28.1866 4.6283 8.6283 24.0373 8.6283 48.0746C8.6283 71.9627 28.0373 91.521 52.0746 91.521C76.112 91.521 95.521 72.112 95.521 48.0746C95.521 24.0373 75.9627 4.6283 52.0746 4.6283Z" fill="white"/>
</g>
<path d="M75.5148 36.4293C75.2162 33.294 74.0218 30.6066 71.7823 28.5164C69.3935 26.2769 66.4075 25.2318 63.2722 25.0825C57.7481 24.7839 44.759 24.6346 40.1306 25.3811C34.9051 26.2769 31.4712 29.2629 29.9782 34.4884C28.9331 38.5196 29.0824 56.8835 29.6796 60.7653C30.5754 66.1401 33.7107 69.574 39.0855 70.9177C42.818 71.8135 60.8834 71.8135 64.9145 71.067C70.2893 70.1712 73.7232 67.0359 75.2162 61.6611C76.2613 57.4807 75.9627 40.1619 75.5148 36.4293ZM71.1851 59.8695C70.5879 63.9006 67.9005 66.4387 63.7201 66.8866C59.9876 67.3345 43.1166 67.4838 39.5334 66.588C36.2488 65.6922 34.3079 63.3034 33.7107 60.0188C33.1135 56.7342 33.1135 40.7591 33.7107 36.4293C34.3079 32.3982 36.9953 29.8601 41.1757 29.4122C45.3562 28.9643 60.2862 28.9643 64.168 29.5615C68.1991 30.1587 70.7372 32.8461 71.1851 37.0266C71.7823 40.6098 71.9316 55.6891 71.1851 59.8695ZM52.5226 36.1307C45.9534 36.1307 40.5785 41.5056 40.5785 48.0748C40.5785 54.644 45.9534 60.0188 52.5226 60.0188C59.0918 60.0188 64.4666 54.644 64.4666 48.0748C64.4666 41.5056 59.0918 36.1307 52.5226 36.1307ZM52.3733 55.8384C48.0436 55.8384 44.6097 52.2552 44.6097 48.0748C44.6097 43.7451 48.1929 40.3112 52.3733 40.3112C56.703 40.3112 60.1369 43.8944 60.1369 48.0748C60.2862 52.4045 56.703 55.8384 52.3733 55.8384ZM67.7512 35.6828C67.7512 37.1758 66.5568 38.5196 64.9145 38.5196C63.4215 38.5196 62.0778 37.3251 62.0778 35.6828C62.0778 34.1898 63.2722 32.8461 64.9145 32.8461C66.5568 32.8461 67.7512 34.0405 67.7512 35.6828Z" fill="white"/>
<path d="M75.5148 36.4293C75.2162 33.294 74.0218 30.6066 71.7823 28.5164C69.3935 26.2769 66.4075 25.2318 63.2722 25.0825C57.7481 24.7839 44.759 24.6346 40.1306 25.3811C34.9051 26.2769 31.4712 29.2629 29.9782 34.4884C28.9331 38.5196 29.0824 56.8835 29.6796 60.7653C30.5754 66.1401 33.7107 69.574 39.0855 70.9177C42.818 71.8135 60.8834 71.8135 64.9145 71.067C70.2893 70.1712 73.7232 67.0359 75.2162 61.6611C76.2613 57.4807 75.9627 40.1619 75.5148 36.4293ZM71.1851 59.8695C70.5879 63.9006 67.9005 66.4387 63.7201 66.8866C59.9876 67.3345 43.1166 67.4838 39.5334 66.588C36.2488 65.6922 34.3079 63.3034 33.7107 60.0188C33.1135 56.7342 33.1135 40.7591 33.7107 36.4293C34.3079 32.3982 36.9953 29.8601 41.1757 29.4122C45.3562 28.9643 60.2862 28.9643 64.168 29.5615C68.1991 30.1587 70.7372 32.8461 71.1851 37.0266C71.7823 40.6098 71.9316 55.6891 71.1851 59.8695ZM52.5226 36.1307C45.9534 36.1307 40.5785 41.5056 40.5785 48.0748C40.5785 54.644 45.9534 60.0188 52.5226 60.0188C59.0918 60.0188 64.4666 54.644 64.4666 48.0748C64.4666 41.5056 59.0918 36.1307 52.5226 36.1307ZM52.3733 55.8384C48.0436 55.8384 44.6097 52.2552 44.6097 48.0748C44.6097 43.7451 48.1929 40.3112 52.3733 40.3112C56.703 40.3112 60.1369 43.8944 60.1369 48.0748C60.2862 52.4045 56.703 55.8384 52.3733 55.8384ZM67.7512 35.6828C67.7512 37.1758 66.5568 38.5196 64.9145 38.5196C63.4215 38.5196 62.0778 37.3251 62.0778 35.6828C62.0778 34.1898 63.2722 32.8461 64.9145 32.8461C66.5568 32.8461 67.7512 34.0405 67.7512 35.6828Z" fill="white"/>
<defs>
<filter id="filter0_d" x="0" y="0" width="104" height="104" filterUnits="userSpaceOnUse" color-interpolation-filters="sRGB">
<feFlood flood-opacity="0" result="BackgroundImageFix"/>
<feColorMatrix in="SourceAlpha" type="matrix" values="0 0 0 0 0 0 0 0 0 0 0 0 0 0 0 0 0 0 127 0"/>
<feOffset dy="4"/>
<feGaussianBlur stdDeviation="2"/>
<feColorMatrix type="matrix" values="0 0 0 0 0 0 0 0 0 0 0 0 0 0 0 0 0 0 0.25 0"/>
<feBlend mode="normal" in2="BackgroundImageFix" result="effect1_dropShadow"/>
<feBlend mode="normal" in="SourceGraphic" in2="effect1_dropShadow" result="shape"/>
</filter>
<linearGradient id="paint0_linear" x1="112.673" y1="-29.3387" x2="24.6455" y2="82.9535" gradientUnits="userSpaceOnUse">
<stop offset="0.010753" stop-color="#3542E0"/>
<stop offset="0.1748" stop-color="#3841DF"/>
<stop offset="0.2744" stop-color="#403FDA"/>
<stop offset="0.357" stop-color="#4E3CD2"/>
<stop offset="0.4301" stop-color="#6337C7"/>
<stop offset="0.4971" stop-color="#7D31B9"/>
<stop offset="0.5595" stop-color="#9E2AA8"/>
<stop offset="0.6173" stop-color="#C32193"/>
<stop offset="0.6236" stop-color="#C82091"/>
<stop offset="0.7612" stop-color="#F62B37"/>
<stop offset="1" stop-color="#FFC658"/>
</linearGradient>
</defs>
</svg>
