<svg width="47" height="48" viewBox="0 0 47 48" fill="none" xmlns="http://www.w3.org/2000/svg">
<path d="M46.5148 12.4293C46.2162 9.29405 45.0218 6.60664 42.7823 4.51644C40.3935 2.27694 37.4075 1.23184 34.2722 1.08254C28.7481 0.783939 15.759 0.634637 11.1306 1.38114C5.90514 2.27694 2.47124 5.26294 0.978237 10.4884C-0.0668638 14.5196 0.0824352 32.8835 0.679636 36.7653C1.57544 42.1401 4.71074 45.574 10.0855 46.9177C13.818 47.8135 31.8834 47.8135 35.9145 47.067C41.2893 46.1712 44.7232 43.0359 46.2162 37.6611C47.2613 33.4807 46.9627 16.1619 46.5148 12.4293ZM42.1851 35.8695C41.5879 39.9006 38.9005 42.4387 34.7201 42.8866C30.9876 43.3345 14.1166 43.4838 10.5334 42.588C7.24884 41.6922 5.30794 39.3034 4.71074 36.0188C4.11354 32.7342 4.11354 16.7591 4.71074 12.4293C5.30794 8.39824 7.99534 5.86014 12.1757 5.41224C16.3562 4.96434 31.2862 4.96434 35.168 5.56154C39.1991 6.15874 41.7372 8.84615 42.1851 13.0266C42.7823 16.6098 42.9316 31.6891 42.1851 35.8695ZM23.5226 12.1307C16.9534 12.1307 11.5785 17.5056 11.5785 24.0748C11.5785 30.644 16.9534 36.0188 23.5226 36.0188C30.0918 36.0188 35.4666 30.644 35.4666 24.0748C35.4666 17.5056 30.0918 12.1307 23.5226 12.1307ZM23.3733 31.8384C19.0436 31.8384 15.6097 28.2552 15.6097 24.0748C15.6097 19.7451 19.1929 16.3112 23.3733 16.3112C27.703 16.3112 31.1369 19.8944 31.1369 24.0748C31.2862 28.4045 27.703 31.8384 23.3733 31.8384ZM38.7512 11.6828C38.7512 13.1758 37.5568 14.5196 35.9145 14.5196C34.4215 14.5196 33.0778 13.3251 33.0778 11.6828C33.0778 10.1898 34.2722 8.84615 35.9145 8.84615C37.5568 8.84615 38.7512 10.0405 38.7512 11.6828Z" fill="white"/>
<path d="M46.5148 12.4293C46.2162 9.29405 45.0218 6.60664 42.7823 4.51644C40.3935 2.27694 37.4075 1.23184 34.2722 1.08254C28.7481 0.783939 15.759 0.634637 11.1306 1.38114C5.90514 2.27694 2.47124 5.26294 0.978237 10.4884C-0.0668638 14.5196 0.0824352 32.8835 0.679636 36.7653C1.57544 42.1401 4.71074 45.574 10.0855 46.9177C13.818 47.8135 31.8834 47.8135 35.9145 47.067C41.2893 46.1712 44.7232 43.0359 46.2162 37.6611C47.2613 33.4807 46.9627 16.1619 46.5148 12.4293ZM42.1851 35.8695C41.5879 39.9006 38.9005 42.4387 34.7201 42.8866C30.9876 43.3345 14.1166 43.4838 10.5334 42.588C7.24884 41.6922 5.30794 39.3034 4.71074 36.0188C4.11354 32.7342 4.11354 16.7591 4.71074 12.4293C5.30794 8.39824 7.99534 5.86014 12.1757 5.41224C16.3562 4.96434 31.2862 4.96434 35.168 5.56154C39.1991 6.15874 41.7372 8.84615 42.1851 13.0266C42.7823 16.6098 42.9316 31.6891 42.1851 35.8695ZM23.5226 12.1307C16.9534 12.1307 11.5785 17.5056 11.5785 24.0748C11.5785 30.644 16.9534 36.0188 23.5226 36.0188C30.0918 36.0188 35.4666 30.644 35.4666 24.0748C35.4666 17.5056 30.0918 12.1307 23.5226 12.1307ZM23.3733 31.8384C19.0436 31.8384 15.6097 28.2552 15.6097 24.0748C15.6097 19.7451 19.1929 16.3112 23.3733 16.3112C27.703 16.3112 31.1369 19.8944 31.1369 24.0748C31.2862 28.4045 27.703 31.8384 23.3733 31.8384ZM38.7512 11.6828C38.7512 13.1758 37.5568 14.5196 35.9145 14.5196C34.4215 14.5196 33.0778 13.3251 33.0778 11.6828C33.0778 10.1898 34.2722 8.84615 35.9145 8.84615C37.5568 8.84615 38.7512 10.0405 38.7512 11.6828Z" fill="white"/>
</svg>
