<svg width="19" height="25" viewBox="0 0 19 25" fill="none" xmlns="http://www.w3.org/2000/svg">
<path d="M9.05406 0C4.06163 0 0 4.06163 0 9.05402C0 15.2497 8.1025 24.3454 8.44747 24.7296C8.77149 25.0905 9.33722 25.0898 9.66066 24.7296C10.0056 24.3454 18.1081 15.2497 18.1081 9.05402C18.108 4.06163 14.0465 0 9.05406 0ZM9.05406 13.6093C6.54224 13.6093 4.49878 11.5658 4.49878 9.05402C4.49878 6.5422 6.54229 4.49874 9.05406 4.49874C11.5658 4.49874 13.6093 6.54224 13.6093 9.05406C13.6093 11.5659 11.5658 13.6093 9.05406 13.6093Z" fill="#FF527D"/>
</svg>
