<svg width="24" height="24" viewBox="0 0 24 24" fill="none" xmlns="http://www.w3.org/2000/svg">
<path d="M23.462 18.9399L19.7555 15.2331C19.0173 14.4978 17.7947 14.5201 17.0308 15.2844L15.1634 17.1513C15.0455 17.0863 14.9234 17.0184 14.795 16.9463C13.6158 16.2929 12.0019 15.3974 10.3035 13.6978C8.6002 11.9947 7.70385 10.3783 7.04847 9.19835C6.97932 9.07334 6.91305 8.95282 6.84762 8.83836L8.10086 7.58698L8.717 6.97008C9.48214 6.20473 9.50324 4.98252 8.76672 4.24509L5.06029 0.537841C4.32376 -0.198549 3.10065 -0.176209 2.33551 0.58914L1.29091 1.63974L1.31946 1.66807C0.96919 2.11501 0.676496 2.63048 0.458682 3.18636C0.257898 3.71549 0.132891 4.22041 0.0757315 4.72637C-0.413678 8.78368 1.4404 12.4918 6.47212 17.5236C13.4275 24.4784 19.0326 23.953 19.2744 23.9274C19.801 23.8644 20.3058 23.7386 20.8187 23.5394C21.3697 23.3241 21.8849 23.0319 22.3315 22.6823L22.3543 22.7026L23.4126 21.6664C24.1762 20.9012 24.1981 19.6785 23.462 18.9399Z" fill="#FF527D"/>
</svg>
