<svg width="42" height="24" viewBox="0 0 42 24" fill="none" xmlns="http://www.w3.org/2000/svg">
<path d="M41.6257 21.3746C41.5128 21.1855 40.8145 19.6682 37.4542 16.5495C33.9365 13.2837 34.409 13.814 38.6461 8.1672C41.2267 4.7282 42.2584 2.62804 41.9355 1.73023C41.6283 0.874413 39.7303 1.10018 39.7303 1.10018L33.4193 1.13693C33.4193 1.13693 32.952 1.07393 32.6029 1.28132C32.2642 1.48608 32.0463 1.95862 32.0463 1.95862C32.0463 1.95862 31.0461 4.62057 29.7125 6.88348C26.901 11.6587 25.7748 11.9107 25.3153 11.6141C24.2469 10.9237 24.5147 8.83663 24.5147 7.35602C24.5147 2.7278 25.2156 0.798282 23.1469 0.299495C22.4591 0.134107 21.9551 0.0238491 20.1988 0.00547278C17.9464 -0.018154 16.0379 0.0133484 14.9589 0.541013C14.2396 0.892789 13.6857 1.67772 14.0244 1.72235C14.4418 1.77748 15.3869 1.97699 15.8883 2.65955C16.5367 3.53899 16.5131 5.51838 16.5131 5.51838C16.5131 5.51838 16.8858 10.9657 15.6441 11.643C14.7909 12.1076 13.6227 11.1599 11.1157 6.82573C9.83194 4.60744 8.86062 2.15288 8.86062 2.15288C8.86062 2.15288 8.67423 1.6961 8.34083 1.45196C7.93655 1.15531 7.36951 1.0608 7.36951 1.0608L1.36831 1.09755C1.36831 1.09755 0.467871 1.12381 0.137096 1.51496C-0.156926 1.86411 0.113469 2.58341 0.113469 2.58341C0.113469 2.58341 4.81257 13.5751 10.1312 19.1169C15.0115 24.1966 20.5506 23.8632 20.5506 23.8632H23.0603C23.0603 23.8632 23.819 23.7792 24.2049 23.3618C24.5619 22.9786 24.5488 22.2593 24.5488 22.2593C24.5488 22.2593 24.4989 18.8911 26.0635 18.395C27.6045 17.9067 29.5839 21.6502 31.6814 23.0914C33.2671 24.1809 34.472 23.942 34.472 23.942L40.0821 23.8632C40.0821 23.8632 43.017 23.6821 41.6257 21.3746Z" fill="white"/>
</svg>
