<svg width="104" height="104" viewBox="0 0 104 104" fill="none" xmlns="http://www.w3.org/2000/svg">
<path d="M52.0746 83.7573C71.8641 83.7573 87.9067 67.7148 87.9067 47.9253C87.9067 28.1358 71.8641 12.0933 52.0746 12.0933C32.2852 12.0933 16.2426 28.1358 16.2426 47.9253C16.2426 67.7148 32.2852 83.7573 52.0746 83.7573Z" fill="#5C64CA"/>
<path d="M71.6257 59.3746C71.5128 59.1855 70.8145 57.6682 67.4542 54.5495C63.9365 51.2837 64.409 51.814 68.6461 46.1672C71.2267 42.7282 72.2584 40.628 71.9355 39.7302C71.6283 38.8744 69.7303 39.1002 69.7303 39.1002L63.4193 39.1369C63.4193 39.1369 62.952 39.0739 62.6029 39.2813C62.2642 39.4861 62.0463 39.9586 62.0463 39.9586C62.0463 39.9586 61.0461 42.6206 59.7125 44.8835C56.901 49.6587 55.7748 49.9107 55.3153 49.6141C54.2469 48.9237 54.5147 46.8366 54.5147 45.356C54.5147 40.7278 55.2156 38.7983 53.1469 38.2995C52.4591 38.1341 51.9551 38.0238 50.1988 38.0055C47.9464 37.9818 46.0379 38.0133 44.9589 38.541C44.2396 38.8928 43.6857 39.6777 44.0244 39.7224C44.4418 39.7775 45.3869 39.977 45.8883 40.6595C46.5367 41.539 46.5131 43.5184 46.5131 43.5184C46.5131 43.5184 46.8858 48.9657 45.6441 49.643C44.7909 50.1076 43.6227 49.1599 41.1157 44.8257C39.8319 42.6074 38.8606 40.1529 38.8606 40.1529C38.8606 40.1529 38.6742 39.6961 38.3408 39.452C37.9366 39.1553 37.3695 39.0608 37.3695 39.0608L31.3683 39.0976C31.3683 39.0976 30.4679 39.1238 30.1371 39.515C29.8431 39.8641 30.1135 40.5834 30.1135 40.5834C30.1135 40.5834 34.8126 51.5751 40.1312 57.1169C45.0115 62.1966 50.5506 61.8632 50.5506 61.8632H53.0603C53.0603 61.8632 53.819 61.7792 54.2049 61.3618C54.5619 60.9786 54.5488 60.2593 54.5488 60.2593C54.5488 60.2593 54.4989 56.8911 56.0635 56.395C57.6045 55.9067 59.5839 59.6502 61.6814 61.0914C63.2671 62.1809 64.472 61.942 64.472 61.942L70.0821 61.8632C70.0821 61.8632 73.017 61.6821 71.6257 59.3746Z" fill="white"/>
<g filter="url(#filter0_d)">
<path d="M52.0746 96C25.6485 96 4 74.5008 4 47.9254C4 21.4992 25.6485 0 52.0746 0C78.5008 0 100 21.4992 100 47.9254C100 74.5008 78.5008 96 52.0746 96ZM52.0746 4.6283C28.1866 4.6283 8.6283 24.0373 8.6283 48.0746C8.6283 71.9627 28.0373 91.521 52.0746 91.521C76.112 91.521 95.521 72.112 95.521 48.0746C95.521 24.0373 75.9627 4.6283 52.0746 4.6283Z" fill="white"/>
</g>
<defs>
<filter id="filter0_d" x="0" y="0" width="104" height="104" filterUnits="userSpaceOnUse" color-interpolation-filters="sRGB">
<feFlood flood-opacity="0" result="BackgroundImageFix"/>
<feColorMatrix in="SourceAlpha" type="matrix" values="0 0 0 0 0 0 0 0 0 0 0 0 0 0 0 0 0 0 127 0"/>
<feOffset dy="4"/>
<feGaussianBlur stdDeviation="2"/>
<feColorMatrix type="matrix" values="0 0 0 0 0 0 0 0 0 0 0 0 0 0 0 0 0 0 0.25 0"/>
<feBlend mode="normal" in2="BackgroundImageFix" result="effect1_dropShadow"/>
<feBlend mode="normal" in="SourceGraphic" in2="effect1_dropShadow" result="shape"/>
</filter>
</defs>
</svg>
