<svg width="30" height="30" viewBox="0 0 30 30" fill="none" xmlns="http://www.w3.org/2000/svg">
<path d="M1.18002 28.8L3.12002 21.72C1.92002 19.64 1.30002 17.3 1.30002 14.88C1.30002 7.33997 7.44002 1.21997 14.98 1.21997C18.64 1.21997 22.08 2.63997 24.66 5.21997C27.24 7.79997 28.66 11.24 28.66 14.9C28.66 22.44 22.52 28.58 14.98 28.58C12.7 28.58 10.44 28 8.44002 26.92L1.18002 28.8Z" fill="url(#paint0_linear)"/>
<path d="M0.679993 29.3L2.67999 21.96C1.43999 19.82 0.779993 17.38 0.779993 14.88C0.779993 7.07997 7.13999 0.719971 14.94 0.719971C18.72 0.719971 22.28 2.19997 24.96 4.87997C27.64 7.55997 29.1 11.12 29.1 14.9C29.1 22.7 22.74 29.06 14.94 29.06C12.56 29.06 10.24 28.46 8.17999 27.34L0.679993 29.3ZM8.53999 24.76L8.97999 25.02C10.78 26.1 12.86 26.66 14.98 26.66C21.46 26.66 26.76 21.38 26.76 14.9C26.76 11.76 25.54 8.79997 23.32 6.57997C21.1 4.35997 18.14 3.11997 15 3.11997C8.47999 3.11997 3.19999 8.37997 3.19999 14.88C3.19999 17.1 3.81999 19.26 4.99999 21.14L5.27999 21.58L4.09999 25.92L8.53999 24.76Z" fill="url(#paint1_linear)"/>
<path fill-rule="evenodd" clip-rule="evenodd" d="M11.42 8.95984C11.16 8.37984 10.88 8.35984 10.62 8.33984C10.42 8.33984 10.18 8.33984 9.94001 8.33984C9.70001 8.33984 9.32001 8.41984 9.00001 8.77984C8.68001 9.13984 7.76001 9.99984 7.76001 11.7398C7.76001 13.4798 9.02001 15.1598 9.20001 15.3998C9.38001 15.6398 11.64 19.3198 15.24 20.7398C18.22 21.9198 18.84 21.6798 19.48 21.6198C20.12 21.5598 21.58 20.7598 21.86 19.9398C22.16 19.1198 22.16 18.3998 22.06 18.2598C21.98 18.1198 21.74 18.0198 21.38 17.8398C21.02 17.6598 19.28 16.7998 18.96 16.6798C18.64 16.5598 18.4 16.4998 18.16 16.8598C17.92 17.2198 17.24 18.0198 17.04 18.2398C16.84 18.4798 16.62 18.4998 16.28 18.3198C15.92 18.1398 14.78 17.7598 13.44 16.5598C12.38 15.6198 11.68 14.4598 11.48 14.0998C11.28 13.7398 11.46 13.5598 11.64 13.3798C11.8 13.2198 12 12.9598 12.18 12.7598C12.36 12.5598 12.42 12.3998 12.54 12.1598C12.66 11.9198 12.6 11.7198 12.52 11.5398C12.42 11.3998 11.74 9.65984 11.42 8.95984Z" fill="white"/>
<defs>
<linearGradient id="paint0_linear" x1="14.9071" y1="28.8014" x2="14.9071" y2="1.21345" gradientUnits="userSpaceOnUse">
<stop stop-color="#20B038"/>
<stop offset="1" stop-color="#60D66A"/>
</linearGradient>
<linearGradient id="paint1_linear" x1="14.9072" y1="29.2959" x2="14.9072" y2="0.718611" gradientUnits="userSpaceOnUse">
<stop stop-color="#F9F9F9"/>
<stop offset="1" stop-color="white"/>
</linearGradient>
</defs>
</svg>
