<svg width="19" height="16" viewBox="0 0 19 16" fill="none" xmlns="http://www.w3.org/2000/svg">
    <path d="M9.5 4.75C7.40461 4.75 5.7 6.45462 5.7 8.55C5.7 10.6454 7.40461 12.35 9.5 12.35C11.5954 12.35 13.3 10.6454 13.3 8.55C13.3 6.45462 11.5954 4.75 9.5 4.75Z" />
    <path d="M17.4803 3.16667H14.781L13.5144 0H5.48562L4.21895 3.16667H3.8V1.58333H1.9V3.16667H1.51968C0.681467 3.16667 0 3.84813 0 4.68635V13.9862C0 14.8301 0.686533 15.5167 1.53045 15.5167H17.4695C18.3135 15.5167 19 14.8301 19 13.9862V4.68635C19 3.84813 18.3185 3.16667 17.4803 3.16667ZM3.16667 3.16667H2.53333V2.21667H3.16667V3.16667ZM9.5 14.25C6.35708 14.25 3.8 11.6929 3.8 8.55C3.8 5.40708 6.35708 2.85 9.5 2.85C12.6429 2.85 15.2 5.40708 15.2 8.55C15.2 11.6929 12.6429 14.25 9.5 14.25ZM16.4667 6.96667C15.7681 6.96667 15.2 6.39857 15.2 5.7C15.2 5.00143 15.7681 4.43333 16.4667 4.43333C17.1652 4.43333 17.7333 5.00143 17.7333 5.7C17.7333 6.39857 17.1652 6.96667 16.4667 6.96667Z"/>
</svg>
