<svg width="17" height="17" viewBox="0 0 17 17" fill="none" xmlns="http://www.w3.org/2000/svg">
<path d="M15.8407 13.9091H13.1362C11.4319 13.9091 10.0453 12.5225 10.0453 10.8183C10.0453 9.114 11.4319 7.72742 13.1362 7.72742H15.8407C16.0542 7.72742 16.227 7.55461 16.227 7.34105V6.18198C16.227 5.37179 15.5986 4.71289 14.8046 4.649L12.5857 0.773352C12.3801 0.414909 12.048 0.158718 11.6507 0.052337C11.2553 -0.0533197 10.8418 0.00217091 10.4879 0.20816L2.88138 4.63654H1.54544C0.693125 4.63654 0 5.32963 0 6.18198V15.4546C0 16.3069 0.693089 17 1.54544 17H14.6816C15.5339 17 16.227 16.3069 16.227 15.4546V14.2955C16.227 14.0819 16.0542 13.9091 15.8407 13.9091ZM13.0649 3.16611L13.9067 4.63654H10.5392L13.0649 3.16611ZM4.41715 4.63654L10.8769 0.875966C11.0516 0.773714 11.2557 0.746549 11.4508 0.798635C11.6481 0.851445 11.8126 0.978979 11.9149 1.15744L11.9157 1.15885L5.94245 4.63654H4.41715Z" />
<path d="M15.8398 8.5H13.1353C11.857 8.5 10.8171 9.53983 10.8171 10.8181C10.8171 12.0965 11.857 13.1363 13.1353 13.1363H15.8398C16.479 13.1363 16.9989 12.6164 16.9989 11.9772V9.65907C16.9989 9.01992 16.479 8.5 15.8398 8.5ZM13.1353 11.5908C12.7093 11.5908 12.3626 11.2441 12.3626 10.8181C12.3626 10.3922 12.7093 10.0454 13.1353 10.0454C13.5612 10.0454 13.908 10.3922 13.908 10.8181C13.908 11.2441 13.5613 11.5908 13.1353 11.5908Z" />
</svg>
