<svg width="190" height="18" viewBox="0 0 190 18" fill="none" xmlns="http://www.w3.org/2000/svg">
<path d="M1.84803 16.276C1.62803 16.276 1.40069 16.1293 1.16603 15.836C0.931359 15.5573 0.814026 15.2053 0.814026 14.78C0.814026 14.4427 0.894693 14.1127 1.05603 13.79C1.34936 13.174 1.64269 12.6753 1.93603 12.294C2.03869 12.1473 2.11203 12.0227 2.15603 11.92C2.21469 11.8173 2.25136 11.678 2.26603 11.502C2.47136 11.238 2.74269 10.7613 3.08003 10.072C3.65203 9.14799 4.46603 7.72532 5.52203 5.80399C5.66869 5.53999 5.95469 5.01932 6.38003 4.24199C6.82003 3.46466 7.11336 3.00266 7.26003 2.85599L7.37003 2.70199C7.32603 2.77532 7.39936 2.60666 7.59003 2.19599C7.79536 1.78532 8.00803 1.41866 8.22803 1.09599C8.46269 0.758657 8.66803 0.589991 8.84403 0.589991C9.03469 0.589991 9.25469 0.670657 9.50403 0.83199C9.75336 0.978658 9.96603 1.20599 10.142 1.51399C10.3327 1.80732 10.428 2.15932 10.428 2.56999C10.428 2.74599 10.4207 2.88532 10.406 2.98799L10.186 4.48399L10.076 4.96799C9.88536 5.93599 9.59936 7.26332 9.21803 8.94999C8.88069 10.446 8.71203 11.348 8.71203 11.656C8.71203 11.744 8.72669 11.8173 8.75603 11.876C8.78536 11.92 8.82203 11.942 8.86603 11.942C8.89536 11.942 8.96869 11.898 9.08603 11.81C9.20336 11.7073 9.30603 11.5607 9.39403 11.37L9.68003 10.93L10.054 10.38C10.4647 9.80799 10.9707 9.03799 11.572 8.06999C12.1734 7.08732 13.1487 5.40799 14.498 3.03199C14.7767 2.62132 15.004 2.26199 15.18 1.95399C15.4147 1.57266 15.642 1.21332 15.862 0.875991C16.082 0.538657 16.2507 0.325991 16.368 0.237991C16.5147 0.120658 16.698 0.0619907 16.918 0.0619907C17.138 0.0766572 17.3654 0.157324 17.6 0.30399C17.8494 0.450657 18.0547 0.65599 18.216 0.91999C18.392 1.18399 18.48 1.46999 18.48 1.77799C18.48 2.12999 18.37 2.77532 18.15 3.71399C17.9447 4.65266 17.7027 5.56199 17.424 6.44199C17.3654 6.74999 17.182 7.47599 16.874 8.61999C16.6394 9.47066 16.4634 10.1453 16.346 10.644C16.2434 11.1427 16.192 11.546 16.192 11.854V12.03C15.972 12.426 15.862 13.218 15.862 14.406C15.8034 14.89 15.6934 15.264 15.532 15.528C15.3707 15.8067 15.2387 15.946 15.136 15.946L15.07 15.924C14.9967 15.924 14.9234 15.9533 14.85 16.012C14.7914 16.0853 14.7034 16.122 14.586 16.122C14.2194 16.122 13.9774 15.99 13.86 15.726C13.7574 15.462 13.706 15.1027 13.706 14.648C13.706 14.384 13.7134 14.164 13.728 13.988C13.772 13.6067 14.2414 11.6193 15.136 8.02599C15.84 5.20999 16.192 3.73599 16.192 3.60399L15.884 4.13199C15.5907 4.68932 15.224 5.34199 14.784 6.08999L13.244 8.97199C13.0534 9.23599 12.892 9.49266 12.76 9.74199C12.6427 9.99132 12.5767 10.138 12.562 10.182C12.386 10.534 12.034 11.04 11.506 11.7C11.33 11.92 11.2274 12.0593 11.198 12.118C11.1247 12.2793 10.89 12.5653 10.494 12.976C10.098 13.372 9.68003 13.7387 9.24003 14.076C8.80003 14.3987 8.43336 14.56 8.14003 14.56C7.74403 14.56 7.38469 14.3693 7.06203 13.988C6.75403 13.6067 6.60003 13.1447 6.60003 12.602C6.60003 12.206 6.67336 11.546 6.82003 10.622C7.05469 9.60999 7.30403 8.58332 7.56803 7.54199C7.83203 6.50066 8.01536 5.81866 8.11803 5.49599C8.16203 5.36399 8.18403 5.21732 8.18403 5.05599C8.18403 4.95332 8.16936 4.88732 8.14003 4.85799C8.12536 4.85799 8.10336 4.87266 8.07403 4.90199C8.05936 4.93132 8.03736 4.96799 8.00803 5.01199C7.78803 5.36399 7.44336 5.97999 6.97403 6.85999C6.50469 7.73999 5.99869 8.77399 5.45603 9.96199C3.35869 13.8193 2.15603 15.924 1.84803 16.276Z" fill="#4C4C54"/>
<path d="M22.5834 9.38999C23.0527 9.19932 23.5 9.10399 23.9254 9.10399C24.4094 9.10399 24.798 9.22133 25.0914 9.45599C25.3994 9.67599 25.5534 10.0207 25.5534 10.49C25.6267 10.7393 25.6634 10.996 25.6634 11.26C25.6634 11.4653 25.6414 11.678 25.5974 11.898C25.1574 12.8073 24.7174 13.416 24.2774 13.724C24.072 13.9293 23.7714 14.1493 23.3754 14.384C22.9794 14.6187 22.62 14.78 22.2974 14.868C21.7107 15.0147 21.3294 15.088 21.1534 15.088C20.992 15.088 20.8527 15.0587 20.7354 15C20.618 14.9413 20.4787 14.8387 20.3174 14.692C20.112 14.516 20.0094 14.3107 20.0094 14.076C19.9654 14.3987 19.7894 14.604 19.4814 14.692C19.144 14.648 18.8947 14.56 18.7334 14.428C18.5867 14.2813 18.5134 14.0613 18.5134 13.768C18.5134 13.7093 18.528 13.5773 18.5574 13.372C18.5867 13.2693 18.638 13.0347 18.7114 12.668C18.7994 12.3013 18.88 12.0227 18.9534 11.832L19.4374 10.556C19.7307 9.74932 19.958 9.13333 20.1194 8.70799C20.2954 8.28266 20.4567 7.96732 20.6034 7.76199L21.0874 6.52999L21.3954 6.30999C21.762 6.33932 22.0114 6.43466 22.1434 6.59599C22.2754 6.74266 22.3707 6.97732 22.4294 7.29999C22.4147 7.46132 22.1214 8.20199 21.5494 9.52199C21.476 9.71266 21.4027 9.88866 21.3294 10.05C21.2707 10.2113 21.212 10.358 21.1534 10.49C21.828 9.87399 22.3047 9.50732 22.5834 9.38999ZM29.5134 7.07999C29.6307 7.35866 29.6894 7.60799 29.6894 7.82799C29.6894 8.01866 29.6527 8.19466 29.5794 8.35599C29.462 8.61999 29.176 9.41199 28.7214 10.732C28.2814 12.0373 28.032 12.822 27.9734 13.086C27.8267 13.4527 27.7167 13.9147 27.6434 14.472C27.6727 14.604 27.6507 14.7433 27.5774 14.89C27.504 15.0367 27.3794 15.1613 27.2034 15.264C26.7634 15.2347 26.4334 15.1467 26.2134 15C25.9934 14.8387 25.832 14.56 25.7294 14.164C25.7294 13.856 25.766 13.5627 25.8394 13.284C25.9127 13.0053 25.964 12.8073 25.9934 12.69C26.1694 12.03 26.3527 11.4653 26.5434 10.996C26.5874 10.908 26.6974 10.644 26.8734 10.204C27.1667 9.32399 27.3867 8.56866 27.5334 7.93799C27.6947 7.30732 27.79 6.92599 27.8194 6.79399C28.0247 6.57399 28.2447 6.46399 28.4794 6.46399C28.802 6.46399 29.1467 6.66932 29.5134 7.07999ZM23.1114 12.602C23.654 11.9273 23.94 11.3627 23.9694 10.908C23.9694 10.864 23.94 10.8053 23.8814 10.732C23.8227 10.6587 23.7787 10.5927 23.7494 10.534C23.3827 10.6807 23.1407 10.8053 23.0234 10.908C22.906 10.996 22.8327 11.0547 22.8034 11.084C22.1874 11.568 21.762 11.942 21.5274 12.206C21.2927 12.47 20.992 12.888 20.6254 13.46L20.8674 13.482C20.97 13.5407 21.0947 13.57 21.2414 13.57C21.5494 13.57 21.8867 13.4747 22.2534 13.284C22.6347 13.0933 22.9207 12.866 23.1114 12.602Z" fill="#4C4C54"/>
<path d="M45.4397 0.63399C45.7183 1.13266 45.8577 1.53599 45.8577 1.84399C45.8577 2.03466 45.821 2.23999 45.7477 2.45999C45.6743 2.67999 45.5717 2.92933 45.4397 3.20799C45.3223 3.47199 45.2417 3.65532 45.1977 3.75799C44.919 4.30066 44.523 4.84332 44.0097 5.38599C43.4963 5.92866 42.895 6.43466 42.2057 6.90399C41.5897 7.44666 40.9883 7.86466 40.4017 8.15799L40.1817 8.26799C40.563 8.37066 40.959 8.60532 41.3697 8.97199C41.5017 9.10399 41.5677 9.26532 41.5677 9.45599C41.5677 9.49999 41.553 9.58066 41.5237 9.69799C41.509 9.87399 41.4943 10.0427 41.4797 10.204C41.465 10.3507 41.4577 10.49 41.4577 10.622C41.3843 10.7833 41.3037 11.04 41.2157 11.392C41.1277 11.7293 41.0323 12.03 40.9297 12.294C40.827 12.558 40.6803 12.844 40.4897 13.152C40.211 13.636 39.9837 13.966 39.8077 14.142C39.6463 14.3033 39.309 14.5527 38.7957 14.89L38.1797 15.286C38.1357 15.286 37.9817 15.286 37.7177 15.286C37.4537 15.3007 37.1823 15.2347 36.9037 15.088C36.6397 14.956 36.4197 14.7433 36.2437 14.45C36.1263 14.23 36.0237 13.988 35.9357 13.724C35.8623 13.4453 35.8257 13.196 35.8257 12.976C35.8257 12.8147 35.8477 12.69 35.8917 12.602C36.0823 11.59 36.2363 10.8493 36.3537 10.38C36.471 9.89599 36.5443 9.61732 36.5737 9.54399L36.7717 9.08199C36.8303 8.94999 36.8817 8.82532 36.9257 8.70799C36.9697 8.57599 36.9917 8.43666 36.9917 8.28999L36.9697 8.04799C36.9403 7.68132 37.0503 7.39532 37.2997 7.18999C37.5343 6.98466 37.703 6.77199 37.8057 6.55199C37.9083 6.30266 38.0697 5.95799 38.2897 5.51799C38.5243 5.07799 38.7003 4.78466 38.8177 4.63799L39.2577 4.02199C39.4483 3.72866 39.6097 3.49399 39.7417 3.31799C39.8883 3.12732 40.057 2.95132 40.2477 2.78999C40.409 2.49666 40.629 2.21799 40.9077 1.95399C41.201 1.67532 41.5457 1.37466 41.9417 1.05199C42.2643 0.787991 42.4623 0.619325 42.5357 0.545991C42.609 0.472657 42.7483 0.406657 42.9537 0.347991C43.1737 0.289324 43.3863 0.237991 43.5917 0.193991L44.0757 0.0619907C44.2077 -0.0113426 44.4203 0.0179909 44.7137 0.149991C45.0217 0.267324 45.2637 0.428657 45.4397 0.63399ZM43.8557 2.94399C44.1197 2.41599 44.2517 1.99066 44.2517 1.66799C44.2517 1.55066 44.237 1.46999 44.2077 1.42599C44.0023 1.52866 43.4597 2.00532 42.5797 2.85599C40.8783 4.55732 39.8737 5.78199 39.5657 6.52999L39.7197 6.55199C40.3797 6.30266 40.9957 5.95066 41.5677 5.49599C42.1543 5.02666 42.6457 4.56466 43.0417 4.10999C43.4377 3.64066 43.709 3.25199 43.8557 2.94399ZM39.5877 10.38C39.5877 9.88132 39.5803 9.56599 39.5657 9.43399C39.551 9.30199 39.507 9.14066 39.4337 8.94999L39.5437 8.57599L39.1477 8.70799C39.001 8.76666 38.8983 8.86932 38.8397 9.01599C38.8103 9.10399 38.7663 9.26532 38.7077 9.49999C38.649 9.73466 38.5757 9.89599 38.4877 9.98399C38.429 10.0427 38.3043 10.512 38.1137 11.392C37.923 12.272 37.8277 12.822 37.8277 13.042C37.8277 13.174 37.879 13.24 37.9817 13.24C38.055 13.24 38.143 13.196 38.2457 13.108C38.363 13.02 38.4803 12.888 38.5977 12.712C38.8617 12.3747 39.0963 11.8393 39.3017 11.106C39.4483 10.6807 39.5436 10.4387 39.5877 10.38Z" fill="#4C4C54"/>
<path d="M51.4135 14.824C50.9735 14.824 50.6875 14.802 50.5555 14.758C50.4235 14.6993 50.2622 14.582 50.0715 14.406C50.0275 14.3033 49.9322 14.164 49.7855 13.988C49.6535 13.812 49.5435 13.68 49.4555 13.592C49.4115 13.4307 49.3895 13.24 49.3895 13.02C49.3895 12.6387 49.4408 12.1913 49.5435 11.678C49.6608 11.1647 49.8002 10.6953 49.9615 10.27C50.0202 10.1527 50.0642 10.0427 50.0935 9.93999C50.1375 9.83732 50.1668 9.77132 50.1815 9.74199C50.1815 9.63932 50.3648 9.32399 50.7315 8.79599C51.1128 8.25332 51.4135 7.87932 51.6335 7.67399C51.7362 7.55666 51.8902 7.43199 52.0955 7.29999C52.3155 7.16799 52.5062 7.07266 52.6675 7.01399C52.7115 6.99932 52.8875 6.93332 53.1955 6.81599C53.5182 6.69866 53.8115 6.63999 54.0755 6.63999C54.3102 6.63999 54.5375 6.69132 54.7575 6.79399C54.9922 6.88199 55.1828 7.02866 55.3295 7.23399C55.7108 7.61532 55.9015 8.11399 55.9015 8.72999C55.9015 8.84732 55.8868 8.97932 55.8575 9.12599C55.7842 9.41932 55.6302 9.66132 55.3955 9.85199C55.1755 10.028 54.9408 10.116 54.6915 10.116C54.4422 10.116 54.2295 10.0207 54.0535 9.82999C53.9948 9.68332 53.9655 9.58799 53.9655 9.54399C53.9655 9.49999 53.9948 9.37532 54.0535 9.16999C54.1122 8.90599 54.1415 8.73732 54.1415 8.66399C54.1415 8.47332 54.0755 8.37799 53.9435 8.37799C53.7675 8.37799 53.6282 8.42199 53.5255 8.50999C53.4228 8.59799 53.2322 8.78866 52.9535 9.08199C52.7628 9.28732 52.5355 9.58799 52.2715 9.98399C52.0222 10.3653 51.8242 10.732 51.6775 11.084C51.5455 11.48 51.4502 11.766 51.3915 11.942C51.3475 12.1033 51.3255 12.1987 51.3255 12.228C51.3255 12.2867 51.3182 12.3453 51.3035 12.404C51.2888 12.448 51.2815 12.4993 51.2815 12.558C51.2815 12.6607 51.3035 12.7413 51.3475 12.8C51.3915 12.8587 51.4722 12.9173 51.5895 12.976C51.6188 12.9907 51.6702 13.02 51.7435 13.064C51.8168 13.108 51.8902 13.13 51.9635 13.13C52.0515 13.13 52.1762 13.0933 52.3375 13.02C52.4988 12.9467 52.6015 12.9027 52.6455 12.888C52.8362 12.8 53.1075 12.6093 53.4595 12.316L53.9875 11.92C54.0902 11.8467 54.1782 11.788 54.2515 11.744C54.3395 11.6853 54.4055 11.6487 54.4495 11.634C54.4935 11.6047 54.5155 11.6047 54.5155 11.634C54.5155 11.6927 54.5375 11.722 54.5815 11.722C54.6255 11.722 54.6768 11.6927 54.7355 11.634C54.7942 11.546 54.8968 11.502 55.0435 11.502C55.1608 11.502 55.2782 11.5387 55.3955 11.612C55.5275 11.6707 55.5935 11.722 55.5935 11.766L55.5715 11.876C55.5715 11.9493 55.6082 12.0227 55.6815 12.096C55.6815 12.1547 55.6595 12.2353 55.6155 12.338C55.5862 12.426 55.5422 12.4993 55.4835 12.558C55.3368 12.778 55.1682 13.0053 54.9775 13.24C54.8015 13.4747 54.6768 13.636 54.6035 13.724H54.5815C54.5082 13.724 54.4055 13.79 54.2735 13.922C54.0535 14.1273 53.8628 14.23 53.7015 14.23C53.6428 14.2593 53.5768 14.296 53.5035 14.34C53.4302 14.3693 53.3935 14.406 53.3935 14.45C53.1442 14.6993 52.4842 14.824 51.4135 14.824Z" fill="#4C4C54"/>
<path d="M58.9324 14.846C58.7564 14.846 58.617 14.8167 58.5144 14.758C58.4117 14.6993 58.265 14.5893 58.0744 14.428C57.781 14.12 57.5537 13.8047 57.3924 13.482C57.231 13.1447 57.1724 12.8513 57.2164 12.602C57.2604 12.4993 57.275 12.3967 57.2604 12.294C57.2604 12.1913 57.2604 12.1253 57.2604 12.096C57.2017 12.0373 57.1724 12.0007 57.1724 11.986C57.1724 11.9567 57.187 11.9347 57.2164 11.92C57.2457 11.8907 57.2677 11.8613 57.2824 11.832C57.3704 11.832 57.3997 11.7513 57.3704 11.59C57.341 11.4727 57.3924 11.216 57.5244 10.82C57.6564 10.424 57.825 10.0573 58.0304 9.71999C58.1917 9.45599 58.4264 9.12599 58.7344 8.72999C59.057 8.33399 59.343 8.03332 59.5924 7.82799C60.3257 7.19732 60.9857 6.81599 61.5724 6.68399C61.8657 6.61066 62.1517 6.57399 62.4304 6.57399C62.8557 6.57399 63.1857 6.69132 63.4204 6.92599C63.743 7.05799 63.9777 7.24866 64.1244 7.49799C64.271 7.74732 64.3664 8.07732 64.4104 8.48799C64.425 8.57599 64.4324 8.72266 64.4324 8.92799C64.4324 10.0133 64.0217 11.1427 63.2004 12.316C62.863 12.8 62.5257 13.1887 62.1884 13.482C61.851 13.7753 61.4404 14.0687 60.9564 14.362C60.6924 14.538 60.4137 14.6553 60.1204 14.714C59.827 14.7727 59.431 14.8167 58.9324 14.846ZM61.1764 12.162C61.455 11.9127 61.653 11.6633 61.7704 11.414C61.9024 11.15 62.0857 10.6953 62.3204 10.05C62.4084 9.91799 62.4524 9.65399 62.4524 9.25799C62.4524 8.90599 62.401 8.70799 62.2984 8.66399C62.225 8.60532 62.137 8.57599 62.0344 8.57599C61.9024 8.57599 61.6897 8.67866 61.3964 8.88399C60.883 9.32399 60.4504 9.78599 60.0984 10.27C59.761 10.7393 59.5264 11.282 59.3944 11.898C59.3797 11.9567 59.3724 12.0447 59.3724 12.162C59.3724 12.6607 59.5484 12.91 59.9004 12.91C60.2377 12.91 60.663 12.6607 61.1764 12.162Z" fill="#4C4C54"/>
<path d="M71.6771 12.316C71.7797 12.2573 71.9117 12.228 72.0731 12.228C72.1024 12.228 72.3151 12.25 72.7111 12.294C72.7697 12.3673 72.8871 12.4553 73.0631 12.558C73.2537 12.6607 73.3931 12.7927 73.4811 12.954C73.5397 13.0713 73.5691 13.2473 73.5691 13.482C73.5691 14.01 73.4371 14.67 73.1731 15.462C72.9091 16.254 72.6597 16.7893 72.4251 17.068C72.2784 17.2587 72.1244 17.354 71.9631 17.354C71.8457 17.354 71.6697 17.288 71.4351 17.156H71.4571L71.2811 17.068L71.3031 17.09C71.1271 17.0167 71.0097 16.936 70.9511 16.848C70.8924 16.7747 70.8484 16.6573 70.8191 16.496C70.7897 16.3493 70.7604 16.232 70.7311 16.144L71.3251 14.318L71.3691 14.274L71.3471 14.23C70.2764 14.5967 69.2571 14.78 68.2891 14.78L67.4091 14.802C67.1157 14.802 66.8517 14.7727 66.6171 14.714C66.3971 14.6407 66.1917 14.516 66.0011 14.34L65.7151 14.076V14.098C65.5391 13.9513 65.4144 13.8047 65.3411 13.658C65.2677 13.5113 65.2311 13.3207 65.2311 13.086C65.2311 12.69 65.3777 12.0227 65.6711 11.084C65.9644 10.1453 66.2284 9.42666 66.4631 8.92799V8.94999C66.5071 8.84732 66.5437 8.75932 66.5731 8.68599C66.6024 8.59799 66.6097 8.48799 66.5951 8.35599C66.8151 8.15066 66.9691 7.94532 67.0571 7.73999C67.1451 7.53466 67.2257 7.26332 67.2991 6.92599C67.3724 6.63266 67.4237 6.44199 67.4531 6.35399C67.5557 6.29532 67.6511 6.22932 67.7391 6.15599C67.8271 6.08266 67.9224 6.01666 68.0251 5.95799L68.2891 6.08999L68.2231 6.04599C68.8831 6.17799 69.2131 6.52999 69.2131 7.10199C69.2131 7.38066 69.1471 7.68866 69.0151 8.02599C68.8831 8.34866 68.7071 8.72999 68.4871 9.16999C68.2231 9.69799 68.0691 10.0573 68.0251 10.248C67.9957 10.38 67.8711 10.7393 67.6511 11.326C67.3137 12.2793 67.1451 12.8587 67.1451 13.064C67.1744 13.02 67.3357 12.9833 67.6291 12.954C67.9224 12.91 68.1131 12.8807 68.2011 12.866C68.7877 12.8073 69.1544 12.7487 69.3011 12.69C69.2864 12.4847 69.3304 12.184 69.4331 11.788C69.5504 11.392 69.6677 11.0107 69.7851 10.644C69.8584 10.468 69.9097 10.3213 69.9391 10.204C69.9684 10.072 69.9977 9.96932 70.0271 9.89599C70.2764 9.03066 70.5037 8.28266 70.7091 7.65199C70.9291 7.02132 71.1637 6.62532 71.4131 6.46399C71.7944 6.59599 72.0951 6.73532 72.3151 6.88199C72.5497 7.01399 72.7551 7.21199 72.9311 7.47599C72.8871 7.63732 72.8357 7.78399 72.7771 7.91599C72.7331 8.03332 72.6964 8.14332 72.6671 8.24599C72.5204 8.68599 72.4177 9.01599 72.3591 9.23599C72.1684 9.98399 71.8677 10.9813 71.4571 12.228L71.6771 12.316Z" fill="#4C4C54"/>
<path d="M81.7164 15.066C81.2911 14.9193 80.9318 14.648 80.6384 14.252C80.3451 13.8413 80.1324 13.3867 80.0004 12.888C79.9418 12.9467 79.7218 13.174 79.3404 13.57C78.9591 13.9513 78.5631 14.2593 78.1524 14.494C77.7418 14.7287 77.3751 14.8313 77.0524 14.802C76.6858 14.5673 76.4144 14.3767 76.2384 14.23C76.0624 14.0833 75.9378 13.878 75.8644 13.614V13.636C75.6738 13.1373 75.5784 12.6607 75.5784 12.206C75.5784 11.9273 75.6958 11.3407 75.9304 10.446C76.1798 9.55132 76.4511 8.70066 76.7444 7.89399C77.0378 7.08732 77.2724 6.61799 77.4484 6.48599L77.8224 6.46399C77.9544 6.46399 78.1378 6.55199 78.3724 6.72799C78.6218 6.90399 78.7831 7.05066 78.8564 7.16799C78.8858 7.25599 78.9004 7.33666 78.9004 7.40999C78.9004 7.60066 78.8491 7.87199 78.7464 8.22399C78.6438 8.56132 78.4971 9.00866 78.3064 9.56599C77.8078 10.9447 77.5584 11.8833 77.5584 12.382C77.5584 12.4847 77.5658 12.558 77.5804 12.602C78.1231 12.4553 78.6071 12.14 79.0324 11.656C79.4578 11.172 79.7804 10.6587 80.0004 10.116C80.2791 9.42666 80.4698 8.92066 80.5724 8.59799C80.6898 8.26066 80.7484 7.98932 80.7484 7.78399C80.7484 7.50532 80.7851 7.29999 80.8584 7.16799C80.9318 7.03599 81.0858 6.90399 81.3204 6.77199C81.4818 6.77199 81.7091 6.78666 82.0024 6.81599L82.7284 7.51999C82.7724 7.65199 82.7944 7.80599 82.7944 7.98199C82.7944 8.39266 82.6404 9.03066 82.3324 9.89599C82.1564 10.4387 82.0244 10.864 81.9364 11.172C81.8631 11.48 81.8264 11.7807 81.8264 12.074C81.8264 12.4407 81.9071 12.756 82.0684 13.02C82.3031 12.9173 82.5304 12.7853 82.7504 12.624C82.9704 12.448 83.1024 12.3453 83.1464 12.316C83.3518 12.1547 83.5791 11.9933 83.8284 11.832C84.0484 11.9787 84.2244 12.228 84.3564 12.58C84.5031 12.932 84.5764 13.2547 84.5764 13.548C84.5178 13.6213 84.4151 13.7167 84.2684 13.834C84.0924 14.142 83.7698 14.4353 83.3004 14.714C82.8458 14.978 82.4278 15.11 82.0464 15.11C81.8998 15.11 81.7898 15.0953 81.7164 15.066Z" fill="#4C4C54"/>
<path d="M87.5526 14.604C87.3033 14.6627 87.0026 14.5307 86.6506 14.208C86.2986 13.8853 86.0933 13.5847 86.0346 13.306C86.0053 13.1593 85.9906 13.0347 85.9906 12.932C85.9906 12.36 86.174 11.6707 86.5406 10.864C86.9073 10.0427 87.3986 9.27266 88.0146 8.55399C88.6453 7.83532 89.3346 7.31466 90.0826 6.99199C90.3906 6.83066 90.5886 6.74999 90.6766 6.74999C90.7646 6.74999 90.9626 6.83066 91.2706 6.99199C91.564 7.06532 91.7986 7.14599 91.9746 7.23399C92.1506 7.32199 92.312 7.46132 92.4586 7.65199C92.6493 8.03332 92.7886 8.50266 92.8766 9.05999C92.9646 9.36799 93.0086 9.58799 93.0086 9.71999C93.0086 9.83732 92.9646 9.93999 92.8766 10.028C92.862 10.0427 92.8326 10.072 92.7886 10.116C92.7593 10.16 92.7446 10.1967 92.7446 10.226C92.7446 10.2407 92.7593 10.248 92.7886 10.248C92.7886 10.2627 92.7813 10.2993 92.7666 10.358C92.752 10.402 92.7226 10.468 92.6786 10.556C92.5026 11.1133 92.4146 11.546 92.4146 11.854C92.4146 11.9567 92.4293 12.0813 92.4586 12.228C92.6053 12.6093 92.7886 12.8 93.0086 12.8C93.214 12.8 93.4486 12.668 93.7126 12.404C93.9326 12.2573 94.1526 12.184 94.3726 12.184C94.5046 12.184 94.5706 12.2207 94.5706 12.294C94.5853 12.3087 94.6146 12.3307 94.6586 12.36C94.7026 12.3893 94.7466 12.404 94.7906 12.404C94.8493 12.404 94.8786 12.47 94.8786 12.602C94.8786 12.7193 94.8493 12.8733 94.7906 13.064C94.7466 13.2547 94.688 13.4087 94.6146 13.526C94.512 13.6287 94.4313 13.7167 94.3726 13.79C94.314 13.8633 94.2846 13.922 94.2846 13.966L93.9546 14.274C93.676 14.4353 93.346 14.516 92.9646 14.516C92.5686 14.516 92.2533 14.4353 92.0186 14.274C91.784 14.1127 91.564 13.9147 91.3586 13.68C91.1533 13.4307 91.0213 13.2107 90.9626 13.02L90.8526 12.8L90.2146 13.218L89.6646 13.79C89.5473 13.9367 89.4446 14.01 89.3566 14.01H89.1366C89.1366 14.1127 88.9313 14.2373 88.5206 14.384C88.11 14.5307 87.7873 14.604 87.5526 14.604ZM88.0146 12.756C88.176 12.756 88.506 12.5727 89.0046 12.206C89.518 11.8247 89.8626 11.524 90.0386 11.304C90.0973 11.2307 90.1706 11.128 90.2586 10.996C90.3613 10.8493 90.4493 10.7393 90.5226 10.666C90.7573 10.3873 90.926 10.1673 91.0286 10.006C91.146 9.82999 91.2046 9.66132 91.2046 9.49999C91.2046 9.38266 91.1533 9.22132 91.0506 9.01599C90.992 8.83999 90.904 8.75199 90.7866 8.75199C90.728 8.75199 90.5593 8.80332 90.2806 8.90599C90.002 9.06732 89.672 9.39732 89.2906 9.89599C88.924 10.3947 88.6013 10.9007 88.3226 11.414C88.044 11.9273 87.9046 12.3013 87.9046 12.536C87.9046 12.58 87.9193 12.624 87.9486 12.668C87.978 12.712 88 12.7413 88.0146 12.756Z" fill="#4C4C54"/>
<path d="M102.875 7.29999C103.036 7.53466 103.132 7.79132 103.161 8.06999C103.205 8.34866 103.22 8.59799 103.205 8.81799C103.205 9.02332 103.212 9.15532 103.227 9.21399C103.08 9.80066 102.868 10.578 102.589 11.546C102.31 12.4993 102.193 12.8733 102.237 12.668C102.208 12.8 102.149 12.9833 102.061 13.218C101.944 13.57 101.863 13.856 101.819 14.076C101.775 14.34 101.68 14.5307 101.533 14.648C101.401 14.7507 101.203 14.8607 100.939 14.978L100.763 15.022C100.66 15.022 100.55 14.9853 100.433 14.912C100.33 14.824 100.228 14.736 100.125 14.648C100.008 14.34 99.9491 14.12 99.9491 13.988C99.9491 13.856 99.9931 13.6727 100.081 13.438C100.242 12.91 100.433 12.2647 100.653 11.502C100.873 10.7247 101.064 10.0647 101.225 9.52199L101.401 8.92799C101.46 8.64932 101.482 8.41466 101.467 8.22399C101.394 8.20932 101.24 8.20199 101.005 8.20199C100.712 8.20199 100.477 8.22399 100.301 8.26799C100.184 8.76666 100.008 9.27999 99.7731 9.80799C99.5531 10.3213 99.2011 11.0547 98.7171 12.008C98.4531 12.5213 98.1525 13.0053 97.8151 13.46L97.5511 13.812L96.7591 14.582L96.0771 15.11C95.9891 15.1833 95.8938 15.2273 95.7911 15.242C95.6884 15.2713 95.5784 15.2787 95.4611 15.264C95.3438 15.264 95.2485 15.264 95.1751 15.264C94.9845 15.2053 94.8011 15.0807 94.6251 14.89C94.4638 14.6993 94.3538 14.582 94.2951 14.538L94.1851 14.274C94.1851 14.142 94.1998 14.0467 94.2291 13.988C94.2731 13.9147 94.3684 13.8047 94.5151 13.658C94.6178 13.482 94.7498 13.394 94.9111 13.394C94.9991 13.394 95.0651 13.4013 95.1091 13.416C95.2264 13.328 95.4024 13.2033 95.6371 13.042C95.8718 12.866 96.0624 12.712 96.2091 12.58C96.3704 12.4333 96.5025 12.2867 96.6051 12.14C96.9278 11.6707 97.3238 11.0327 97.7931 10.226C97.9838 9.90332 98.2258 9.41199 98.5191 8.75199C98.3871 8.70799 98.2991 8.67866 98.2551 8.66399C98.2258 8.64932 98.1378 8.59799 97.9911 8.50999L97.7051 7.54199C97.7051 7.17532 97.8811 6.94799 98.2331 6.85999C98.4971 6.80132 98.8858 6.73532 99.3991 6.66199C99.7658 6.61799 100.074 6.56666 100.323 6.50799C100.514 6.44932 100.748 6.41999 101.027 6.41999C101.438 6.41999 101.812 6.49332 102.149 6.63999C102.442 6.77199 102.684 6.99199 102.875 7.29999Z" fill="#4C4C54"/>
<path d="M105.754 14.956C105.622 14.8973 105.446 14.8533 105.226 14.824C105.035 14.7947 104.881 14.758 104.764 14.714C104.647 14.67 104.522 14.582 104.39 14.45C104.199 14.274 104.045 14.0687 103.928 13.834C103.825 13.5847 103.774 13.328 103.774 13.064C103.774 12.888 103.789 12.756 103.818 12.668C103.862 12.536 103.884 12.4187 103.884 12.316C103.899 11.8907 104.009 11.4653 104.214 11.04C104.185 11.0987 104.28 10.8567 104.5 10.314C104.735 9.65399 105.138 8.81066 105.71 7.78399L106.304 6.68399C106.465 6.37599 106.715 6.22199 107.052 6.22199C107.331 6.22199 107.646 6.30266 107.998 6.46399C108.027 6.61066 108.079 6.71332 108.152 6.77199C108.269 7.00666 108.328 7.18999 108.328 7.32199C108.328 7.42466 108.321 7.50532 108.306 7.56399C107.983 7.98932 107.734 8.36332 107.558 8.68599C107.793 8.53932 108.057 8.46599 108.35 8.46599L108.746 8.72999C109.083 8.96466 109.303 9.13332 109.406 9.23599C109.406 9.36799 109.457 9.53666 109.56 9.74199C109.721 10.1673 109.802 10.5267 109.802 10.82C109.802 11.7293 109.545 12.4993 109.032 13.13C108.519 13.746 107.815 14.2373 106.92 14.604C106.803 14.648 106.678 14.7213 106.546 14.824C106.502 14.824 106.37 14.8387 106.15 14.868C105.945 14.8973 105.813 14.9267 105.754 14.956ZM105.798 13.02C105.871 12.976 106.003 12.9247 106.194 12.866C106.399 12.8073 106.546 12.7413 106.634 12.668C107.001 12.3893 107.279 12.096 107.47 11.788C107.675 11.48 107.815 11.106 107.888 10.666L107.844 10.556C107.609 10.4533 107.411 10.3213 107.25 10.16C107.103 9.98399 107.037 9.77866 107.052 9.54399L106.678 10.314C106.473 10.7687 106.282 11.3333 106.106 12.008C106.033 12.3013 105.93 12.6387 105.798 13.02Z" fill="#4C4C54"/>
<path d="M112.455 14.846C112.059 14.8313 111.699 14.758 111.377 14.626C111.069 14.494 110.915 14.2593 110.915 13.922C110.915 13.5993 110.988 13.3573 111.135 13.196C111.105 13.0787 111.091 12.9833 111.091 12.91C111.091 12.8513 111.105 12.778 111.135 12.69L111.113 12.756C111.157 12.6533 111.186 12.5433 111.201 12.426C111.23 12.294 111.252 12.1987 111.267 12.14C111.296 11.9347 111.325 11.7807 111.355 11.678L111.531 11.04C111.677 10.3947 111.824 9.93999 111.971 9.67599C112.323 8.97199 112.792 7.90132 113.379 6.46399C113.54 6.06799 113.767 5.86999 114.061 5.86999C114.31 5.86999 114.567 5.98732 114.831 6.22199C115.095 6.44199 115.307 6.69132 115.469 6.96999L114.985 7.80599C114.75 8.18732 114.559 8.50999 114.413 8.77399C114.281 9.02332 114.178 9.28732 114.105 9.56599C114.339 9.56599 114.515 9.55866 114.633 9.54399C114.706 9.54399 114.794 9.54399 114.897 9.54399C115.014 9.52932 115.146 9.52932 115.293 9.54399C115.425 9.55866 115.564 9.55866 115.711 9.54399C115.872 9.51466 115.989 9.49999 116.063 9.49999C116.327 9.45599 116.561 9.44132 116.767 9.45599C116.913 8.83999 117.119 8.21666 117.383 7.58599C117.647 6.95532 117.947 6.57399 118.285 6.44199C118.358 6.41266 118.446 6.39799 118.549 6.39799C118.651 6.39799 118.747 6.42732 118.835 6.48599C118.937 6.54466 119.025 6.60332 119.099 6.66199C119.172 6.70599 119.231 6.74999 119.275 6.79399C119.465 6.94066 119.597 7.06532 119.671 7.16799C119.759 7.25599 119.803 7.34399 119.803 7.43199C119.803 7.53466 119.744 7.67399 119.627 7.84999C119.524 8.02599 119.443 8.15799 119.385 8.24599C119.297 8.40732 119.231 8.56866 119.187 8.72999C119.069 9.03799 118.974 9.24332 118.901 9.34599C118.842 9.44866 118.637 10.006 118.285 11.018C117.933 12.03 117.742 12.6167 117.713 12.778C117.625 13.306 117.573 13.6947 117.559 13.944C117.544 14.164 117.471 14.3253 117.339 14.428C117.221 14.5307 117.06 14.582 116.855 14.582C116.679 14.582 116.495 14.5527 116.305 14.494C116.114 14.4207 115.953 14.3327 115.821 14.23C115.601 14.054 115.491 13.812 115.491 13.504C115.491 13.2547 115.549 12.976 115.667 12.668C115.784 12.36 115.865 12.1473 115.909 12.03L115.887 12.052C115.916 11.9347 115.953 11.8247 115.997 11.722C116.055 11.6047 116.099 11.4873 116.129 11.37C115.806 11.3407 115.564 11.326 115.403 11.326C115.007 11.326 114.413 11.37 113.621 11.458C113.518 11.678 113.423 11.9493 113.335 12.272C113.261 12.5947 113.217 12.7927 113.203 12.866C113.085 13.4087 112.975 13.834 112.873 14.142C112.77 14.4353 112.631 14.67 112.455 14.846Z" fill="#4C4C54"/>
<path d="M125.193 9.38999C125.662 9.19932 126.109 9.10399 126.535 9.10399C127.019 9.10399 127.407 9.22133 127.701 9.45599C128.009 9.67599 128.163 10.0207 128.163 10.49C128.236 10.7393 128.273 10.996 128.273 11.26C128.273 11.4653 128.251 11.678 128.207 11.898C127.767 12.8073 127.327 13.416 126.887 13.724C126.681 13.9293 126.381 14.1493 125.985 14.384C125.589 14.6187 125.229 14.78 124.907 14.868C124.32 15.0147 123.939 15.088 123.763 15.088C123.601 15.088 123.462 15.0587 123.345 15C123.227 14.9413 123.088 14.8387 122.927 14.692C122.721 14.516 122.619 14.3107 122.619 14.076C122.575 14.3987 122.399 14.604 122.091 14.692C121.753 14.648 121.504 14.56 121.343 14.428C121.196 14.2813 121.123 14.0613 121.123 13.768C121.123 13.7093 121.137 13.5773 121.167 13.372C121.196 13.2693 121.247 13.0347 121.321 12.668C121.409 12.3013 121.489 12.0227 121.563 11.832L122.047 10.556C122.34 9.74932 122.567 9.13333 122.729 8.70799C122.905 8.28266 123.066 7.96732 123.213 7.76199L123.697 6.52999L124.005 6.30999C124.371 6.33932 124.621 6.43466 124.753 6.59599C124.885 6.74266 124.98 6.97732 125.039 7.29999C125.024 7.46132 124.731 8.20199 124.159 9.52199C124.085 9.71266 124.012 9.88866 123.939 10.05C123.88 10.2113 123.821 10.358 123.763 10.49C124.437 9.87399 124.914 9.50732 125.193 9.38999ZM132.123 7.07999C132.24 7.35866 132.299 7.60799 132.299 7.82799C132.299 8.01866 132.262 8.19466 132.189 8.35599C132.071 8.61999 131.785 9.41199 131.331 10.732C130.891 12.0373 130.641 12.822 130.583 13.086C130.436 13.4527 130.326 13.9147 130.253 14.472C130.282 14.604 130.26 14.7433 130.187 14.89C130.113 15.0367 129.989 15.1613 129.813 15.264C129.373 15.2347 129.043 15.1467 128.823 15C128.603 14.8387 128.441 14.56 128.339 14.164C128.339 13.856 128.375 13.5627 128.449 13.284C128.522 13.0053 128.573 12.8073 128.603 12.69C128.779 12.03 128.962 11.4653 129.153 10.996C129.197 10.908 129.307 10.644 129.483 10.204C129.776 9.32399 129.996 8.56866 130.143 7.93799C130.304 7.30732 130.399 6.92599 130.429 6.79399C130.634 6.57399 130.854 6.46399 131.089 6.46399C131.411 6.46399 131.756 6.66932 132.123 7.07999ZM125.721 12.602C126.263 11.9273 126.549 11.3627 126.579 10.908C126.579 10.864 126.549 10.8053 126.491 10.732C126.432 10.6587 126.388 10.5927 126.359 10.534C125.992 10.6807 125.75 10.8053 125.633 10.908C125.515 10.996 125.442 11.0547 125.413 11.084C124.797 11.568 124.371 11.942 124.137 12.206C123.902 12.47 123.601 12.888 123.235 13.46L123.477 13.482C123.579 13.5407 123.704 13.57 123.851 13.57C124.159 13.57 124.496 13.4747 124.863 13.284C125.244 13.0933 125.53 12.866 125.721 12.602Z" fill="#4C4C54"/>
<path d="M139.399 15.264C139.164 15.264 139.01 15.22 138.937 15.132C138.849 15.132 138.739 15.11 138.607 15.066C138.49 15.022 138.365 14.9707 138.233 14.912C137.925 14.78 137.478 14.4573 136.891 13.944C136.304 13.4307 136.011 13.086 136.011 12.91C136.011 12.866 136.004 12.8367 135.989 12.822C135.974 12.8073 135.945 12.8 135.901 12.8C135.886 12.7853 135.857 12.756 135.813 12.712C135.784 12.668 135.769 12.6167 135.769 12.558C135.769 12.4993 135.747 12.448 135.703 12.404C135.659 12.36 135.608 12.338 135.549 12.338L134.515 13.394C134.046 13.8633 133.723 14.1787 133.547 14.34C133.371 14.4867 133.232 14.56 133.129 14.56C132.997 14.56 132.836 14.5013 132.645 14.384C132.469 14.2667 132.315 14.1127 132.183 13.922C132.051 13.7167 131.985 13.4967 131.985 13.262C132.058 13.1593 132.242 12.954 132.535 12.646C132.843 12.3233 133.166 12.0153 133.503 11.722L134.625 10.578L134.383 9.74199C134.119 9.16999 133.928 8.70799 133.811 8.35599C133.723 8.23866 133.65 8.14332 133.591 8.06999C133.547 7.98199 133.525 7.90866 133.525 7.84999C133.525 7.79132 133.584 7.68132 133.701 7.51999C133.804 7.41732 133.95 7.32199 134.141 7.23399C134.332 7.13132 134.515 7.07999 134.691 7.07999C134.779 7.07999 134.867 7.10199 134.955 7.14599C135.072 7.14599 135.256 7.39532 135.505 7.89399C135.769 8.37799 135.901 8.71532 135.901 8.90599C135.901 9.03799 135.908 9.13333 135.923 9.19199C135.952 9.25066 135.996 9.27999 136.055 9.27999C136.158 9.27999 136.378 9.16999 136.715 8.94999C136.876 8.80332 137.001 8.67866 137.089 8.57599C137.192 8.47332 137.258 8.40732 137.287 8.37799C138.182 7.62999 138.695 7.22666 138.827 7.16799C138.9 7.12399 138.966 7.10199 139.025 7.10199C139.216 7.10199 139.414 7.20466 139.619 7.40999C139.839 7.60066 139.949 7.79132 139.949 7.98199C139.949 8.46599 139.7 8.84732 139.201 9.12599C138.834 9.38999 138.504 9.66132 138.211 9.93999L137.463 10.6L136.891 11.062L137.243 11.656C137.302 11.7733 137.382 11.898 137.485 12.03C137.602 12.1473 137.712 12.2353 137.815 12.294C137.932 12.4553 138.189 12.69 138.585 12.998C138.981 13.306 139.208 13.46 139.267 13.46C139.311 13.46 139.377 13.4893 139.465 13.548C139.568 13.6067 139.656 13.6507 139.729 13.68C139.832 13.7827 139.883 13.9513 139.883 14.186C139.883 14.4353 139.832 14.6773 139.729 14.912C139.626 15.1467 139.516 15.264 139.399 15.264Z" fill="#4C4C54"/>
<path d="M148.308 14.824C147.868 14.824 147.582 14.802 147.45 14.758C147.318 14.6993 147.157 14.582 146.966 14.406C146.922 14.3033 146.827 14.164 146.68 13.988C146.548 13.812 146.438 13.68 146.35 13.592C146.306 13.4307 146.284 13.24 146.284 13.02C146.284 12.6387 146.335 12.1913 146.438 11.678C146.555 11.1647 146.695 10.6953 146.856 10.27C146.915 10.1527 146.959 10.0427 146.988 9.93999C147.032 9.83732 147.061 9.77132 147.076 9.74199C147.076 9.63932 147.259 9.32399 147.626 8.79599C148.007 8.25332 148.308 7.87932 148.528 7.67399C148.631 7.55666 148.785 7.43199 148.99 7.29999C149.21 7.16799 149.401 7.07266 149.562 7.01399C149.606 6.99932 149.782 6.93332 150.09 6.81599C150.413 6.69866 150.706 6.63999 150.97 6.63999C151.205 6.63999 151.432 6.69132 151.652 6.79399C151.887 6.88199 152.077 7.02866 152.224 7.23399C152.605 7.61532 152.796 8.11399 152.796 8.72999C152.796 8.84732 152.781 8.97932 152.752 9.12599C152.679 9.41932 152.525 9.66132 152.29 9.85199C152.07 10.028 151.835 10.116 151.586 10.116C151.337 10.116 151.124 10.0207 150.948 9.82999C150.889 9.68332 150.86 9.58799 150.86 9.54399C150.86 9.49999 150.889 9.37532 150.948 9.16999C151.007 8.90599 151.036 8.73732 151.036 8.66399C151.036 8.47332 150.97 8.37799 150.838 8.37799C150.662 8.37799 150.523 8.42199 150.42 8.50999C150.317 8.59799 150.127 8.78866 149.848 9.08199C149.657 9.28732 149.43 9.58799 149.166 9.98399C148.917 10.3653 148.719 10.732 148.572 11.084C148.44 11.48 148.345 11.766 148.286 11.942C148.242 12.1033 148.22 12.1987 148.22 12.228C148.22 12.2867 148.213 12.3453 148.198 12.404C148.183 12.448 148.176 12.4993 148.176 12.558C148.176 12.6607 148.198 12.7413 148.242 12.8C148.286 12.8587 148.367 12.9173 148.484 12.976C148.513 12.9907 148.565 13.02 148.638 13.064C148.711 13.108 148.785 13.13 148.858 13.13C148.946 13.13 149.071 13.0933 149.232 13.02C149.393 12.9467 149.496 12.9027 149.54 12.888C149.731 12.8 150.002 12.6093 150.354 12.316L150.882 11.92C150.985 11.8467 151.073 11.788 151.146 11.744C151.234 11.6853 151.3 11.6487 151.344 11.634C151.388 11.6047 151.41 11.6047 151.41 11.634C151.41 11.6927 151.432 11.722 151.476 11.722C151.52 11.722 151.571 11.6927 151.63 11.634C151.689 11.546 151.791 11.502 151.938 11.502C152.055 11.502 152.173 11.5387 152.29 11.612C152.422 11.6707 152.488 11.722 152.488 11.766L152.466 11.876C152.466 11.9493 152.503 12.0227 152.576 12.096C152.576 12.1547 152.554 12.2353 152.51 12.338C152.481 12.426 152.437 12.4993 152.378 12.558C152.231 12.778 152.063 13.0053 151.872 13.24C151.696 13.4747 151.571 13.636 151.498 13.724H151.476C151.403 13.724 151.3 13.79 151.168 13.922C150.948 14.1273 150.757 14.23 150.596 14.23C150.537 14.2593 150.471 14.296 150.398 14.34C150.325 14.3693 150.288 14.406 150.288 14.45C150.039 14.6993 149.379 14.824 148.308 14.824Z" fill="#4C4C54"/>
<path d="M157.037 15C156.201 15 155.526 14.7653 155.013 14.296C154.5 13.8267 154.243 13.1593 154.243 12.294C154.243 11.9567 154.265 11.5827 154.309 11.172C154.338 10.82 154.478 10.336 154.727 9.71999C154.991 9.10399 155.343 8.50266 155.783 7.91599C156.238 7.32932 156.766 6.89666 157.367 6.61799C157.646 6.48599 157.88 6.39799 158.071 6.35399C158.262 6.29532 158.482 6.26599 158.731 6.26599C159.332 6.26599 159.816 6.37599 160.183 6.59599C160.564 6.81599 160.828 7.06532 160.975 7.34399C161.136 7.62266 161.217 7.86466 161.217 8.06999V8.17999V8.24599C161.217 8.42199 161.114 8.74466 160.909 9.21399C160.704 9.68332 160.374 10.1233 159.919 10.534C159.479 10.9447 158.907 11.172 158.203 11.216C157.851 11.216 157.506 11.1867 157.169 11.128C156.846 11.0547 156.641 11.018 156.553 11.018C156.333 11.018 156.194 11.0987 156.135 11.26C156.076 11.4213 156.047 11.6927 156.047 12.074C156.091 12.4847 156.201 12.7707 156.377 12.932C156.568 13.0933 156.839 13.174 157.191 13.174C157.367 13.174 157.572 13.1227 157.807 13.02C158.042 12.9027 158.32 12.7193 158.643 12.47C158.819 12.3233 158.958 12.2207 159.061 12.162C159.164 12.1033 159.288 12.074 159.435 12.074C159.567 12.074 159.721 12.162 159.897 12.338C160.073 12.514 160.168 12.6827 160.183 12.844C160.154 13.02 159.992 13.284 159.699 13.636C159.406 13.988 159.024 14.3033 158.555 14.582C158.086 14.8607 157.58 15 157.037 15ZM157.807 9.69799C158.086 9.69799 158.276 9.66866 158.379 9.60999C158.526 9.53666 158.746 9.35332 159.039 9.05999C159.347 8.75199 159.508 8.53932 159.523 8.42199C159.523 8.27532 159.457 8.15799 159.325 8.06999C159.208 7.96732 159.039 7.90132 158.819 7.87199H158.577C158.386 7.87199 158.108 8.03332 157.741 8.35599C157.389 8.66399 157.081 9.02332 156.817 9.43399C156.832 9.50732 156.942 9.57332 157.147 9.63199C157.352 9.67599 157.572 9.69799 157.807 9.69799Z" fill="#4C4C54"/>
<path d="M172.899 13.218C173.001 13.3647 173.053 13.504 173.053 13.636C173.053 13.7827 173.001 13.9147 172.899 14.032C172.796 14.1493 172.708 14.208 172.635 14.208C172.283 14.208 171.887 14.1273 171.447 13.966C171.021 13.79 170.809 13.5407 170.809 13.218V11.854C170.809 11.2673 170.757 10.93 170.655 10.842C170.435 10.7247 170.141 10.8933 169.775 11.348C169.408 11.788 168.961 12.448 168.433 13.328C168.227 13.6507 168.051 13.8853 167.905 14.032C167.758 14.164 167.626 14.23 167.509 14.23C167.406 14.23 167.318 14.2007 167.245 14.142C166.79 14.01 166.563 13.7533 166.563 13.372C166.563 13.328 166.577 13.2327 166.607 13.086C166.739 12.6313 166.878 12.1253 167.025 11.568C167.186 11.0107 167.311 10.534 167.399 10.138C167.355 10.05 167.281 10.006 167.179 10.006C167.032 10.006 166.863 10.0793 166.673 10.226C166.614 10.27 166.504 10.3433 166.343 10.446C166.196 10.534 166.042 10.6587 165.881 10.82C165.734 10.9667 165.58 11.172 165.419 11.436C165.36 11.5387 165.257 11.6927 165.111 11.898C164.377 13.0127 163.93 13.6433 163.769 13.79C163.695 13.9953 163.622 14.142 163.549 14.23C163.49 14.3033 163.417 14.34 163.329 14.34C163.27 14.34 163.197 14.318 163.109 14.274C162.83 14.142 162.603 13.9587 162.427 13.724C162.265 13.4747 162.185 13.1813 162.185 12.844C162.185 12.624 162.251 12.184 162.383 11.524C162.515 10.864 162.661 10.248 162.823 9.67599C162.94 9.44132 163.028 9.19932 163.087 8.94999C163.16 8.68599 163.197 8.50266 163.197 8.39999C163.241 8.12132 163.329 7.74732 163.461 7.27799C163.593 6.79399 163.688 6.52999 163.747 6.48599C163.835 6.39799 163.996 6.35399 164.231 6.35399C164.392 6.35399 164.546 6.38332 164.693 6.44199C164.839 6.50066 164.942 6.58866 165.001 6.70599C165.191 6.92599 165.287 7.22666 165.287 7.60799C165.287 7.95999 165.213 8.33399 165.067 8.72999C164.92 9.06732 164.737 9.55866 164.517 10.204C164.517 10.204 164.531 10.1893 164.561 10.16C164.913 9.66132 165.367 9.10399 165.925 8.48799C166.189 8.19466 166.482 7.96732 166.805 7.80599C167.142 7.64466 167.413 7.56399 167.619 7.56399C167.971 7.62266 168.264 7.79866 168.499 8.09199C168.748 8.37066 168.902 8.75932 168.961 9.25799C168.961 9.43399 168.946 9.65399 168.917 9.91799C168.887 10.1673 168.865 10.3287 168.851 10.402C168.909 10.3287 169.056 10.1527 169.291 9.87399C169.54 9.58066 169.841 9.27999 170.193 8.97199C170.515 8.72266 170.816 8.59799 171.095 8.59799C171.329 8.59799 171.535 8.69332 171.711 8.88399C172.033 9.07466 172.283 9.38266 172.459 9.80799C172.649 10.2333 172.745 10.7173 172.745 11.26C172.745 11.4507 172.737 11.5973 172.723 11.7C172.708 11.8027 172.701 11.9493 172.701 12.14C172.701 12.3453 172.723 12.5433 172.767 12.734C172.811 12.91 172.855 13.0713 172.899 13.218Z" fill="#4C4C54"/>
<path d="M178.473 14.736C178.415 13.9587 178.539 13.0567 178.847 12.03C178.642 12.2647 178.363 12.4993 178.011 12.734C177.659 12.9687 177.117 13.306 176.383 13.746C175.665 14.186 175.276 14.406 175.217 14.406C174.88 14.3913 174.631 14.252 174.469 13.988C174.308 13.724 174.183 13.394 174.095 12.998C174.374 12.5873 174.719 12.3233 175.129 12.206C175.628 12.0447 176.354 11.6413 177.307 10.996C176.926 10.8787 176.618 10.6147 176.383 10.204C176.149 9.79333 176.031 9.36799 176.031 8.92799C176.031 8.79599 176.061 8.61266 176.119 8.37799L176.317 7.82799C176.552 7.07999 176.948 6.58866 177.505 6.35399C178.063 6.11932 178.781 6.00199 179.661 6.00199L180.827 6.02399C181.179 6.21466 181.443 6.41999 181.619 6.63999C181.795 6.84532 181.883 7.12399 181.883 7.47599C181.883 8.01866 181.81 8.61266 181.663 9.25799C181.531 9.90332 181.326 10.688 181.047 11.612C180.666 12.9027 180.431 13.834 180.343 14.406C180.226 15.0513 179.925 15.3667 179.441 15.352L178.473 14.736ZM179.947 7.73999C179.874 7.75466 179.764 7.75466 179.617 7.73999C179.485 7.72532 179.368 7.71799 179.265 7.71799C179.104 7.71799 178.994 7.73266 178.935 7.76199C178.73 7.84999 178.51 8.03332 178.275 8.31199C178.041 8.57599 177.923 8.81799 177.923 9.03799C177.923 9.24332 178.019 9.39732 178.209 9.49999L178.825 9.87399C178.855 9.88866 178.928 9.92532 179.045 9.98399C179.177 10.028 179.295 10.094 179.397 10.182C179.427 10.0647 179.515 9.74199 179.661 9.21399C179.823 8.68599 179.918 8.19466 179.947 7.73999Z" fill="#4C4C54"/>
<path d="M189.243 15.264C189.008 15.264 188.854 15.22 188.781 15.132C188.693 15.132 188.583 15.11 188.451 15.066C188.333 15.022 188.209 14.9707 188.077 14.912C187.769 14.78 187.321 14.4573 186.735 13.944C186.148 13.4307 185.855 13.086 185.855 12.91C185.855 12.866 185.847 12.8367 185.833 12.822C185.818 12.8073 185.789 12.8 185.745 12.8C185.73 12.7853 185.701 12.756 185.657 12.712C185.627 12.668 185.613 12.6167 185.613 12.558C185.613 12.4993 185.591 12.448 185.547 12.404C185.503 12.36 185.451 12.338 185.393 12.338L184.359 13.394C183.889 13.8633 183.567 14.1787 183.391 14.34C183.215 14.4867 183.075 14.56 182.973 14.56C182.841 14.56 182.679 14.5013 182.489 14.384C182.313 14.2667 182.159 14.1127 182.027 13.922C181.895 13.7167 181.829 13.4967 181.829 13.262C181.902 13.1593 182.085 12.954 182.379 12.646C182.687 12.3233 183.009 12.0153 183.347 11.722L184.469 10.578L184.227 9.74199C183.963 9.16999 183.772 8.70799 183.655 8.35599C183.567 8.23866 183.493 8.14332 183.435 8.06999C183.391 7.98199 183.369 7.90866 183.369 7.84999C183.369 7.79132 183.427 7.68132 183.545 7.51999C183.647 7.41732 183.794 7.32199 183.985 7.23399C184.175 7.13132 184.359 7.07999 184.535 7.07999C184.623 7.07999 184.711 7.10199 184.799 7.14599C184.916 7.14599 185.099 7.39532 185.349 7.89399C185.613 8.37799 185.745 8.71532 185.745 8.90599C185.745 9.03799 185.752 9.13333 185.767 9.19199C185.796 9.25066 185.84 9.27999 185.899 9.27999C186.001 9.27999 186.221 9.16999 186.559 8.94999C186.72 8.80332 186.845 8.67866 186.933 8.57599C187.035 8.47332 187.101 8.40732 187.131 8.37799C188.025 7.62999 188.539 7.22666 188.671 7.16799C188.744 7.12399 188.81 7.10199 188.869 7.10199C189.059 7.10199 189.257 7.20466 189.463 7.40999C189.683 7.60066 189.793 7.79132 189.793 7.98199C189.793 8.46599 189.543 8.84732 189.045 9.12599C188.678 9.38999 188.348 9.66132 188.055 9.93999L187.307 10.6L186.735 11.062L187.087 11.656C187.145 11.7733 187.226 11.898 187.329 12.03C187.446 12.1473 187.556 12.2353 187.659 12.294C187.776 12.4553 188.033 12.69 188.429 12.998C188.825 13.306 189.052 13.46 189.111 13.46C189.155 13.46 189.221 13.4893 189.309 13.548C189.411 13.6067 189.499 13.6507 189.573 13.68C189.675 13.7827 189.727 13.9513 189.727 14.186C189.727 14.4353 189.675 14.6773 189.573 14.912C189.47 15.1467 189.36 15.264 189.243 15.264Z" fill="#4C4C54"/>
</svg>
