<svg width="200" height="22" viewBox="0 0 200 22" fill="none" xmlns="http://www.w3.org/2000/svg">
<path d="M15.06 0.754043C15.3386 0.798043 15.5806 0.937376 15.786 1.17204C15.9913 1.40671 16.094 1.66338 16.094 1.94204C16.094 2.03004 16.0866 2.09604 16.072 2.14004C16.0133 2.30138 15.9546 2.41871 15.896 2.49204C15.8373 2.55071 15.7566 2.58004 15.654 2.58004C15.5073 2.58004 15.2873 2.50671 14.994 2.36004C14.8473 2.60938 14.7666 2.77071 14.752 2.84404C14.6933 3.06404 14.6126 3.29871 14.51 3.54804C14.378 3.70938 14.18 4.17871 13.916 4.95604C13.6666 5.73338 13.542 6.23938 13.542 6.47404C13.4686 6.67938 13.3586 7.05338 13.212 7.59604C13.0653 8.13871 12.8966 8.73271 12.706 9.37804C11.8553 12.3114 11.4373 13.756 11.452 13.712C11.4373 13.9467 11.4006 14.2327 11.342 14.57C11.3126 14.79 11.2833 15.1054 11.254 15.516C11.2686 15.5454 11.276 15.5967 11.276 15.67C11.276 15.758 11.254 15.8314 11.21 15.89C11.166 15.9487 11.122 15.9854 11.078 16C10.8873 16.1614 10.6233 16.242 10.286 16.242C9.9193 16.242 9.66264 16.1467 9.51597 15.956C9.29597 15.5747 9.20797 15.2814 9.25197 15.076C9.29597 14.5627 9.4133 13.7414 9.60397 12.612C9.69197 12.1867 9.7873 11.8127 9.88997 11.49C9.99264 11.1527 10.0586 11.006 10.088 11.05L10.528 9.46604C10.616 9.21671 10.682 8.97471 10.726 8.74004C10.7846 8.49071 10.8286 8.32204 10.858 8.23404C10.9753 7.67671 11.1146 7.15604 11.276 6.67204C11.4813 6.18804 11.694 5.46204 11.914 4.49404C12.002 4.17138 12.1193 3.80471 12.266 3.39404C12.4273 2.98338 12.53 2.77071 12.574 2.75604C12.0606 2.81471 11.672 2.87338 11.408 2.93204C10.9826 3.02004 10.5573 3.08604 10.132 3.13004L8.63597 3.35004C7.81464 3.46738 7.37464 3.52604 7.31597 3.52604L5.73197 7.20004L4.60997 10.126C4.30197 11.1674 3.97197 12.1867 3.61997 13.184C3.57597 13.3307 3.48064 13.624 3.33397 14.064C3.1873 14.4894 3.06264 14.9514 2.95997 15.45L2.80597 16.22C2.7033 16.44 2.58597 16.6014 2.45397 16.704C2.33664 16.8067 2.1753 16.858 1.96997 16.858C1.5153 16.858 1.1853 16.7774 0.97997 16.616C0.789303 16.4547 0.69397 16.198 0.69397 15.846C0.752636 15.6554 0.840636 15.4134 0.95797 15.12C1.04597 14.8854 1.11197 14.6727 1.15597 14.482C1.25864 14.0714 1.3613 13.7047 1.46397 13.382L1.63997 12.854C2.1093 11.2407 2.5053 10.038 2.82797 9.24604L3.42197 7.57404C3.46597 7.48604 3.54664 7.27338 3.66397 6.93604L4.43397 4.64804C4.78597 3.94404 5.0353 3.30604 5.18197 2.73404C5.0793 2.57271 5.02797 2.38938 5.02797 2.18404C5.02797 1.94938 5.09397 1.75138 5.22597 1.59004C5.37264 1.42871 5.5633 1.34804 5.79797 1.34804C5.90064 1.34804 5.97397 1.35538 6.01797 1.37004C6.2673 1.44338 6.69264 1.49471 7.29397 1.52404C7.8953 1.53871 8.2033 1.53871 8.21797 1.52404C8.36464 1.45071 9.0613 1.32604 10.308 1.15004C11.5693 0.974043 12.8086 0.812709 14.026 0.666043L14.268 0.644043C14.4 0.644043 14.664 0.68071 15.06 0.754043Z" fill="white"/>
<path d="M15.9733 15.846C15.7973 15.846 15.658 15.8167 15.5553 15.758C15.4526 15.6994 15.306 15.5894 15.1153 15.428C14.822 15.12 14.5946 14.8047 14.4333 14.482C14.272 14.1447 14.2133 13.8514 14.2573 13.602C14.3013 13.4994 14.316 13.3967 14.3013 13.294C14.3013 13.1914 14.3013 13.1254 14.3013 13.096C14.2426 13.0374 14.2133 13.0007 14.2133 12.986C14.2133 12.9567 14.228 12.9347 14.2573 12.92C14.2866 12.8907 14.3086 12.8614 14.3233 12.832C14.4113 12.832 14.4406 12.7514 14.4113 12.59C14.382 12.4727 14.4333 12.216 14.5653 11.82C14.6973 11.424 14.866 11.0574 15.0713 10.72C15.2326 10.456 15.4673 10.126 15.7753 9.73004C16.098 9.33404 16.384 9.03338 16.6333 8.82804C17.3666 8.19738 18.0266 7.81604 18.6133 7.68404C18.9066 7.61071 19.1926 7.57404 19.4713 7.57404C19.8966 7.57404 20.2266 7.69138 20.4613 7.92604C20.784 8.05804 21.0186 8.24871 21.1653 8.49804C21.312 8.74738 21.4073 9.07738 21.4513 9.48804C21.466 9.57604 21.4733 9.72271 21.4733 9.92804C21.4733 11.0134 21.0626 12.1427 20.2413 13.316C19.904 13.8 19.5666 14.1887 19.2293 14.482C18.892 14.7754 18.4813 15.0687 17.9973 15.362C17.7333 15.538 17.4546 15.6554 17.1613 15.714C16.868 15.7727 16.472 15.8167 15.9733 15.846ZM18.2173 13.162C18.496 12.9127 18.694 12.6634 18.8113 12.414C18.9433 12.15 19.1266 11.6954 19.3613 11.05C19.4493 10.918 19.4933 10.654 19.4933 10.258C19.4933 9.90604 19.442 9.70804 19.3393 9.66404C19.266 9.60538 19.178 9.57604 19.0753 9.57604C18.9433 9.57604 18.7306 9.67871 18.4373 9.88404C17.924 10.324 17.4913 10.786 17.1393 11.27C16.802 11.7394 16.5673 12.282 16.4353 12.898C16.4206 12.9567 16.4133 13.0447 16.4133 13.162C16.4133 13.6607 16.5893 13.91 16.9413 13.91C17.2786 13.91 17.704 13.6607 18.2173 13.162Z" fill="white"/>
<path d="M25.11 16.088C24.934 16.1174 24.7947 16.132 24.692 16.132C24.0907 16.132 23.5553 15.9414 23.086 15.56C22.6313 15.164 22.404 14.6654 22.404 14.064L22.382 13.712C22.382 13.0227 22.536 12.2234 22.844 11.314C23.152 10.4047 23.5333 9.66404 23.988 9.09204C24.3547 8.66671 24.67 8.32204 24.934 8.05804C25.198 7.79404 25.44 7.61804 25.66 7.53004C25.8507 7.45671 26.0927 7.39071 26.386 7.33204C26.6794 7.27338 26.8994 7.24404 27.046 7.24404C27.3394 7.31738 27.6107 7.42004 27.86 7.55204C28.124 7.68404 28.256 7.83071 28.256 7.99204L28.366 8.10204C28.4687 8.10204 28.586 8.26338 28.718 8.58604C28.8647 8.90871 28.938 9.20204 28.938 9.46604C28.938 9.59804 28.916 9.70804 28.872 9.79604C28.8134 10.0747 28.696 10.346 28.52 10.61C28.3587 10.874 28.2193 11.006 28.102 11.006C27.9407 11.006 27.86 11.05 27.86 11.138C27.86 11.2114 27.772 11.248 27.596 11.248C27.4493 11.248 27.2953 11.2187 27.134 11.16C26.9727 11.0867 26.8774 10.9987 26.848 10.896C26.848 10.8227 26.9067 10.5294 27.024 10.016C27.068 9.79604 27.09 9.61271 27.09 9.46604C27.09 9.20204 27.002 9.07004 26.826 9.07004C26.782 9.07004 26.672 9.09938 26.496 9.15804C26.1147 9.36338 25.8067 9.60538 25.572 9.88404C25.352 10.148 25.154 10.5147 24.978 10.984C24.802 11.4534 24.5967 12.1354 24.362 13.03C24.318 13.206 24.296 13.3674 24.296 13.514C24.296 13.69 24.318 13.8367 24.362 13.954C24.406 14.0567 24.45 14.1154 24.494 14.13C24.5674 14.1594 24.6993 14.174 24.89 14.174C25.2567 14.174 25.55 14.108 25.77 13.976C26.034 13.8294 26.2907 13.668 26.54 13.492C26.7893 13.3014 26.9433 13.184 27.002 13.14C27.0313 13.1107 27.09 13.03 27.178 12.898C27.266 12.7514 27.3613 12.656 27.464 12.612C27.552 12.48 27.662 12.3994 27.794 12.37C27.926 12.3407 28.058 12.326 28.19 12.326C28.322 12.326 28.41 12.326 28.454 12.326C28.6447 12.3847 28.828 12.5167 29.004 12.722C29.18 12.9274 29.2093 13.0594 29.092 13.118C29.048 13.118 29.0187 13.1327 29.004 13.162C28.9893 13.1914 28.982 13.2134 28.982 13.228C29.0114 13.3014 28.894 13.4994 28.63 13.822C28.366 14.13 28.0727 14.4307 27.75 14.724C27.4274 15.0027 27.2074 15.142 27.09 15.142C27.0314 15.142 26.98 15.1494 26.936 15.164C26.892 15.1787 26.87 15.2154 26.87 15.274C26.87 15.3327 26.6427 15.472 26.188 15.692C25.748 15.8974 25.3887 16.0294 25.11 16.088Z" fill="white"/>
<path d="M41.6377 15.89C41.4617 15.9194 41.3224 15.934 41.2197 15.934C40.8677 15.934 40.5524 15.8387 40.2737 15.648C40.2444 15.5747 40.1784 15.45 40.0757 15.274C39.973 15.098 39.9217 14.9294 39.9217 14.768C39.9217 14.6654 39.9437 14.5627 39.9877 14.46C40.0464 14.2987 40.0904 14.0494 40.1197 13.712C40.1197 13.36 40.171 13.0814 40.2737 12.876C40.3324 12.7734 40.3764 12.6194 40.4057 12.414C40.4497 12.2087 40.4864 12.0474 40.5157 11.93C40.5304 11.8567 40.545 11.7394 40.5597 11.578C40.5744 11.402 40.6037 11.182 40.6477 10.918L40.7137 10.258C40.611 10.3754 40.1857 10.9474 39.4377 11.974C38.7044 13.0007 38.3304 13.5434 38.3157 13.602C37.993 14.13 37.4724 14.724 36.7537 15.384C36.6804 15.3987 36.585 15.406 36.4677 15.406C36.2917 15.406 36.101 15.3547 35.8957 15.252C35.749 15.1934 35.595 15.142 35.4337 15.098L35.0817 14.372L35.2357 13.58C35.617 11.7907 35.8077 10.6174 35.8077 10.06C35.8077 9.92804 35.793 9.81804 35.7637 9.73004C35.4557 10.3314 35.1697 10.808 34.9057 11.16C34.6564 11.512 34.3117 11.9374 33.8717 12.436L33.5637 12.832C33.1677 13.3454 32.8084 13.778 32.4857 14.13C32.1777 14.482 31.8257 14.79 31.4297 15.054C31.2684 15.4207 30.997 15.604 30.6157 15.604C30.3517 15.604 30.1097 15.5234 29.8897 15.362C29.6844 15.186 29.5817 14.9807 29.5817 14.746C29.5817 14.526 29.6844 14.3134 29.8897 14.108L30.0437 13.822L30.9457 12.898C32.0164 11.798 32.6837 11.05 32.9477 10.654C33.1237 10.3167 33.5417 9.73004 34.2017 8.89404C34.8617 8.04338 35.3384 7.47138 35.6317 7.17804C35.9104 7.36871 36.2037 7.46404 36.5117 7.46404C36.717 7.72804 36.8857 7.91871 37.0177 8.03604C37.3257 8.30004 37.4797 8.82071 37.4797 9.59804C37.4797 10.1114 37.3844 10.9107 37.1937 11.996C37.179 12.0987 37.157 12.2234 37.1277 12.37C37.0984 12.502 37.0764 12.6487 37.0617 12.81C37.8537 11.5927 38.609 10.5587 39.3277 9.70804C40.0464 8.84271 40.8164 8.02871 41.6377 7.26604H42.5177C42.6497 7.36871 42.7744 7.44204 42.8917 7.48604C43.009 7.53004 43.1484 7.56671 43.3097 7.59604C43.3097 7.69871 43.3244 7.84538 43.3537 8.03604C43.3977 8.22671 43.4197 8.36604 43.4197 8.45404C43.4197 8.54204 43.4124 8.60804 43.3977 8.65204C43.383 8.74004 43.3684 8.84271 43.3537 8.96004C43.339 9.06271 43.2877 9.19471 43.1997 9.35604C43.0824 9.57604 42.9724 9.91338 42.8697 10.368C42.7817 10.8227 42.679 11.4094 42.5617 12.128C42.503 12.4654 42.4004 12.7514 42.2537 12.986C42.239 13.0594 42.2244 13.1767 42.2097 13.338C42.2097 13.4994 42.1804 13.6387 42.1217 13.756V14.108C42.1217 14.2987 42.0997 14.4454 42.0557 14.548V14.746C42.0557 14.878 42.0924 15.0467 42.1657 15.252L41.6377 15.89Z" fill="white"/>
<path d="M47.2425 15.824C47.1692 15.8387 47.0739 15.846 46.9565 15.846C46.7659 15.846 46.6119 15.8167 46.4945 15.758C46.3772 15.6847 46.2379 15.5674 46.0765 15.406C45.7392 15.2447 45.4459 14.9734 45.1965 14.592C44.9472 14.2107 44.8372 13.91 44.8665 13.69C44.9399 12.986 45.1379 12.2234 45.4605 11.402C45.7832 10.566 46.2012 9.81804 46.7145 9.15804C47.2425 8.48338 47.7999 8.01404 48.3865 7.75004C48.6505 7.64738 48.8925 7.59604 49.1125 7.59604C49.5672 7.59604 49.8679 7.74271 50.0145 8.03604C50.1172 8.24138 50.1685 8.39538 50.1685 8.49804C50.1685 8.67404 50.0659 8.79138 49.8605 8.85004C49.8165 8.85004 49.7652 8.87204 49.7065 8.91604C49.6479 8.96004 49.6185 9.00404 49.6185 9.04804C49.6332 9.06271 49.6992 9.07004 49.8165 9.07004C50.0659 9.07004 50.3739 9.03338 50.7405 8.96004C51.1072 8.88671 51.3419 8.80604 51.4445 8.71804C51.5325 8.67404 51.6059 8.65204 51.6645 8.65204L51.9725 8.69604C52.2219 8.76938 52.3465 8.85738 52.3465 8.96004C52.3465 9.03338 52.3685 9.12871 52.4125 9.24604C52.4712 9.36338 52.5225 9.42204 52.5665 9.42204C52.6399 9.42204 52.6765 9.47338 52.6765 9.57604C52.6765 9.66404 52.6252 9.78138 52.5225 9.92804C52.4345 10.06 52.3025 10.192 52.1265 10.324C52.0532 10.368 51.9432 10.434 51.7965 10.522C51.6645 10.61 51.5839 10.6834 51.5545 10.742C51.5399 10.8007 51.5472 10.8814 51.5765 10.984C51.6352 11.1014 51.6645 11.248 51.6645 11.424C51.6645 11.9227 51.4225 12.5094 50.9385 13.184C50.4545 13.844 49.8605 14.4307 49.1565 14.944C48.4672 15.4574 47.8292 15.7507 47.2425 15.824ZM47.3085 13.976C47.3965 13.976 47.6165 13.888 47.9685 13.712C48.1592 13.5214 48.3132 13.404 48.4305 13.36C48.4745 13.36 48.5112 13.3234 48.5405 13.25C48.5845 13.162 48.6505 13.0374 48.7385 12.876C48.8412 12.7 49.0025 12.4727 49.2225 12.194C49.4572 11.93 49.6185 11.7174 49.7065 11.556C49.8092 11.3947 49.8605 11.2334 49.8605 11.072C49.8605 11.0134 49.8459 10.9107 49.8165 10.764C49.8019 10.72 49.7505 10.6834 49.6625 10.654C49.5892 10.61 49.5159 10.5734 49.4425 10.544C49.3692 10.544 49.2959 10.566 49.2225 10.61C49.1492 10.6394 49.0979 10.654 49.0685 10.654C48.9952 10.654 48.9145 10.6174 48.8265 10.544L48.4745 10.104L48.1005 10.478C47.7632 10.8154 47.4772 11.27 47.2425 11.842C47.0225 12.414 46.8905 12.9347 46.8465 13.404C46.8319 13.6094 46.8612 13.756 46.9345 13.844C47.0225 13.9174 47.1472 13.9614 47.3085 13.976Z" fill="white"/>
<path d="M64.3047 14.218C64.4074 14.3647 64.4587 14.504 64.4587 14.636C64.4587 14.7827 64.4074 14.9147 64.3047 15.032C64.2021 15.1494 64.1141 15.208 64.0407 15.208C63.6887 15.208 63.2927 15.1274 62.8527 14.966C62.4274 14.79 62.2147 14.5407 62.2147 14.218V12.854C62.2147 12.2674 62.1634 11.93 62.0607 11.842C61.8407 11.7247 61.5474 11.8934 61.1807 12.348C60.8141 12.788 60.3667 13.448 59.8387 14.328C59.6334 14.6507 59.4574 14.8854 59.3107 15.032C59.1641 15.164 59.0321 15.23 58.9147 15.23C58.8121 15.23 58.7241 15.2007 58.6507 15.142C58.1961 15.01 57.9687 14.7534 57.9687 14.372C57.9687 14.328 57.9834 14.2327 58.0127 14.086C58.1447 13.6314 58.2841 13.1254 58.4307 12.568C58.5921 12.0107 58.7167 11.534 58.8047 11.138C58.7607 11.05 58.6874 11.006 58.5847 11.006C58.4381 11.006 58.2694 11.0794 58.0787 11.226C58.0201 11.27 57.9101 11.3434 57.7487 11.446C57.6021 11.534 57.4481 11.6587 57.2867 11.82C57.1401 11.9667 56.9861 12.172 56.8247 12.436C56.7661 12.5387 56.6634 12.6927 56.5167 12.898C55.7834 14.0127 55.3361 14.6434 55.1747 14.79C55.1014 14.9954 55.0281 15.142 54.9547 15.23C54.8961 15.3034 54.8227 15.34 54.7347 15.34C54.6761 15.34 54.6027 15.318 54.5147 15.274C54.2361 15.142 54.0087 14.9587 53.8327 14.724C53.6714 14.4747 53.5907 14.1814 53.5907 13.844C53.5907 13.624 53.6567 13.184 53.7887 12.524C53.9207 11.864 54.0674 11.248 54.2287 10.676C54.3461 10.4414 54.4341 10.1994 54.4927 9.95004C54.5661 9.68604 54.6027 9.50271 54.6027 9.40004C54.6467 9.12138 54.7347 8.74738 54.8667 8.27804C54.9987 7.79404 55.0941 7.53004 55.1527 7.48604C55.2407 7.39804 55.4021 7.35404 55.6367 7.35404C55.7981 7.35404 55.9521 7.38338 56.0987 7.44204C56.2454 7.50071 56.3481 7.58871 56.4067 7.70604C56.5974 7.92604 56.6927 8.22671 56.6927 8.60804C56.6927 8.96004 56.6194 9.33404 56.4727 9.73004C56.3261 10.0674 56.1427 10.5587 55.9227 11.204C55.9227 11.204 55.9374 11.1894 55.9667 11.16C56.3187 10.6614 56.7734 10.104 57.3307 9.48804C57.5947 9.19471 57.8881 8.96738 58.2107 8.80604C58.5481 8.64471 58.8194 8.56404 59.0247 8.56404C59.3767 8.62271 59.6701 8.79871 59.9047 9.09204C60.1541 9.37071 60.3081 9.75938 60.3667 10.258C60.3667 10.434 60.3521 10.654 60.3227 10.918C60.2934 11.1674 60.2714 11.3287 60.2567 11.402C60.3154 11.3287 60.4621 11.1527 60.6967 10.874C60.9461 10.5807 61.2467 10.28 61.5987 9.97204C61.9214 9.72271 62.2221 9.59804 62.5007 9.59804C62.7354 9.59804 62.9407 9.69338 63.1167 9.88404C63.4394 10.0747 63.6887 10.3827 63.8647 10.808C64.0554 11.2334 64.1507 11.7174 64.1507 12.26C64.1507 12.4507 64.1434 12.5974 64.1287 12.7C64.1141 12.8027 64.1067 12.9494 64.1067 13.14C64.1067 13.3454 64.1287 13.5434 64.1727 13.734C64.2167 13.91 64.2607 14.0714 64.3047 14.218Z" fill="white"/>
<path d="M65.4135 21.148C65.2668 21.148 65.1568 21.082 65.0835 20.95C65.0688 20.9354 65.0028 20.8474 64.8855 20.686C64.7682 20.5247 64.7095 20.29 64.7095 19.982C64.7095 19.9234 64.7242 19.806 64.7535 19.63C64.9148 19.014 64.9955 18.5887 64.9955 18.354C64.9955 18.2807 65.0102 18.1707 65.0395 18.024C65.0688 17.892 65.0908 17.7674 65.1055 17.65C65.1642 17.5474 65.2155 17.386 65.2595 17.166C65.3182 16.9607 65.3475 16.7774 65.3475 16.616C65.3475 16.5427 65.3695 16.4547 65.4135 16.352C65.4722 16.264 65.5382 16.1907 65.6115 16.132C65.6115 16.044 65.6335 15.912 65.6775 15.736C65.7215 15.5454 65.7508 15.4134 65.7655 15.34C65.8388 14.944 66.1248 14.0054 66.6235 12.524C67.1222 11.0427 67.5475 9.84738 67.8995 8.93804C68.0755 8.52738 68.2222 8.14604 68.3395 7.79404C68.4568 7.44204 68.5155 7.19271 68.5155 7.04604C68.5155 6.98738 68.5302 6.93604 68.5595 6.89204C68.6035 6.83338 68.6695 6.76004 68.7575 6.67204C68.8748 6.55471 69.0288 6.49604 69.2195 6.49604C69.4688 6.49604 69.7108 6.57671 69.9455 6.73804C70.0482 6.89938 70.1215 7.03871 70.1655 7.15604C70.2095 7.27338 70.2315 7.40538 70.2315 7.55204C70.2315 7.59604 70.2168 7.73538 70.1875 7.97004C70.1875 8.27804 70.0995 8.55671 69.9235 8.80604C69.7475 9.05538 69.6668 9.17271 69.6815 9.15804C70.4002 8.71804 71.0675 8.49804 71.6835 8.49804C72.3435 8.49804 72.8715 8.73271 73.2675 9.20204C73.6635 9.65671 73.8615 10.1994 73.8615 10.83C73.8615 11.0794 73.7442 11.4534 73.5095 11.952C73.2748 12.436 73.0842 12.744 72.9375 12.876C72.8495 12.876 72.7322 13.03 72.5855 13.338C72.4095 13.5727 72.0722 13.822 71.5735 14.086C71.0895 14.3354 70.7595 14.4307 70.5835 14.372C70.5688 14.372 70.5468 14.394 70.5175 14.438C70.4882 14.4674 70.4735 14.5114 70.4735 14.57C70.4735 14.6287 70.2535 14.7314 69.8135 14.878C69.3735 15.0247 68.9922 15.098 68.6695 15.098C68.4935 15.098 68.3615 15.0907 68.2735 15.076C68.1855 15.0467 68.0975 14.9954 68.0095 14.922C67.9068 15.0247 67.8555 15.12 67.8555 15.208C67.8555 15.3547 67.7822 15.5894 67.6355 15.912C67.4888 16.22 67.3715 16.374 67.2835 16.374C67.2688 16.3887 67.2468 16.418 67.2175 16.462C67.2028 16.506 67.2248 16.5574 67.2835 16.616C67.2835 16.66 67.2762 16.7627 67.2615 16.924C67.2468 17.0854 67.2102 17.21 67.1515 17.298C67.1515 17.43 67.1295 17.606 67.0855 17.826C67.0415 18.0607 66.9902 18.2367 66.9315 18.354C66.9315 18.53 66.9022 18.6987 66.8435 18.86C66.7995 19.036 66.7482 19.124 66.6895 19.124C66.6015 19.1534 66.5575 19.366 66.5575 19.762C66.5428 20.114 66.4255 20.4294 66.2055 20.708C66.0002 20.9867 65.8022 21.126 65.6115 21.126L65.4135 21.148ZM68.4275 13.426C68.6328 13.426 69.0142 13.316 69.5715 13.096C70.1435 12.8614 70.5615 12.634 70.8255 12.414C71.1628 12.1354 71.4195 11.8787 71.5955 11.644C71.7715 11.4094 71.8595 11.1747 71.8595 10.94C71.8595 10.7347 71.7935 10.5367 71.6615 10.346C71.5588 10.1847 71.4048 10.104 71.1995 10.104C70.7155 10.104 70.0848 10.478 69.3075 11.226C69.0435 11.5047 68.8088 11.8567 68.6035 12.282C68.3982 12.6927 68.2955 13.008 68.2955 13.228C68.2955 13.36 68.3395 13.426 68.4275 13.426Z" fill="white"/>
<path d="M80.5971 16.352C80.5531 16.3667 80.4944 16.374 80.4211 16.374C80.2304 16.374 80.0398 16.308 79.8491 16.176C79.6731 16.044 79.5191 15.89 79.3871 15.714C79.2404 15.494 79.1304 15.23 79.0571 14.922C78.9838 14.5994 78.9471 14.2914 78.9471 13.998C78.9471 13.9834 78.9398 13.9687 78.9251 13.954C78.9251 13.9247 78.9178 13.9174 78.9031 13.932C78.5804 14.284 78.1404 14.6507 77.5831 15.032C77.0404 15.4134 76.5858 15.604 76.2191 15.604C75.9698 15.604 75.7058 15.45 75.4271 15.142C75.1631 14.834 74.9944 14.5407 74.9211 14.262C74.9064 14.2034 74.8991 14.086 74.8991 13.91C74.8991 13.338 75.0458 12.502 75.3391 11.402C75.6324 10.302 75.9844 9.33404 76.3951 8.49804C76.8204 7.64738 77.2164 7.22204 77.5831 7.22204C77.9204 7.22204 78.2284 7.53738 78.5071 8.16804C78.5951 8.35871 78.6391 8.49804 78.6391 8.58604C78.6391 8.64471 78.6171 8.71071 78.5731 8.78404C78.5291 8.84271 78.4704 8.91604 78.3971 9.00404L78.3531 9.04804C78.1478 9.28271 77.8764 9.81071 77.5391 10.632C77.2018 11.4534 76.9304 12.172 76.7251 12.788L76.7471 12.766C76.6444 13.118 76.5858 13.3527 76.5711 13.47C77.0111 13.4114 77.4731 13.0667 77.9571 12.436C78.4558 11.8054 79.0424 10.9254 79.7171 9.79604C80.1718 9.04804 80.5091 8.51271 80.7291 8.19004C80.9638 7.86738 81.1618 7.69871 81.3231 7.68404C81.5578 7.66938 81.8144 7.75004 82.0931 7.92604C82.3864 8.10204 82.5331 8.30004 82.5331 8.52004C82.5331 8.63738 82.4744 8.84271 82.3571 9.13604C82.2398 9.42938 82.1224 9.70804 82.0051 9.97204L81.7851 10.456C81.4918 11.16 81.2644 11.732 81.1031 12.172C80.9418 12.5974 80.8244 13.0447 80.7511 13.514V13.492C80.7364 13.5654 80.7291 13.6754 80.7291 13.822C80.7291 14.262 80.9124 14.702 81.2791 15.142C81.3964 15.3034 81.4551 15.45 81.4551 15.582C81.4551 15.7727 81.3671 15.9414 81.1911 16.088C81.0151 16.2494 80.8098 16.3447 80.5751 16.374L80.5971 16.352Z" fill="white"/>
<path d="M93.8978 15.318C93.8685 15.3327 93.7952 15.34 93.6778 15.34C93.4578 15.34 93.2452 15.2814 93.0398 15.164C92.8345 15.0467 92.7025 14.8707 92.6438 14.636C92.6292 14.592 92.5632 14.4527 92.4458 14.218C92.3432 13.9834 92.2918 13.712 92.2918 13.404C92.2918 13.272 92.2992 13.1694 92.3138 13.096L92.4238 12.414C92.4532 12.1354 92.4825 11.9667 92.5118 11.908V11.71C92.5118 11.4607 92.4898 11.336 92.4458 11.336C92.3285 11.336 92.0205 11.6074 91.5218 12.15C91.0378 12.6927 90.6198 13.228 90.2678 13.756C90.1652 13.888 90.0478 14.086 89.9158 14.35C89.7985 14.5994 89.7252 14.7314 89.6958 14.746C89.6372 14.8047 89.5492 14.834 89.4318 14.834C89.2998 14.834 89.1532 14.79 88.9918 14.702C88.8305 14.614 88.7132 14.504 88.6398 14.372C88.6105 14.3134 88.5518 14.262 88.4638 14.218C88.3758 14.1594 88.3318 14.0567 88.3318 13.91C88.3318 13.6607 88.4272 13.25 88.6178 12.678C88.7792 12.194 88.9112 11.776 89.0138 11.424C89.1312 11.072 89.2045 10.8374 89.2338 10.72C89.2338 10.6174 88.8672 10.8814 88.1338 11.512C87.3272 12.4507 86.6085 13.3454 85.9778 14.196C85.6698 14.6214 85.4278 14.9294 85.2518 15.12C85.0758 15.296 84.9218 15.384 84.7898 15.384C84.6872 15.384 84.5772 15.318 84.4598 15.186C84.4012 15.1274 84.2985 15.054 84.1518 14.966C84.0198 14.878 83.9538 14.8047 83.9538 14.746C83.9538 14.6287 83.9172 14.57 83.8438 14.57C83.7558 14.482 83.9025 14.0054 84.2838 13.14C84.6798 12.26 85.0318 11.5854 85.3398 11.116C85.3985 11.072 85.4425 11.0134 85.4718 10.94C85.5012 10.852 85.5012 10.808 85.4718 10.808C85.5012 10.764 85.5452 10.6907 85.6038 10.588C85.6625 10.4854 85.7212 10.3974 85.7798 10.324C86.0292 9.84004 86.1318 9.45138 86.0878 9.15804C86.0292 9.09938 85.9632 9.07738 85.8898 9.09204C85.8312 9.10671 85.7945 9.12138 85.7798 9.13604C85.7505 9.15071 85.6698 9.18004 85.5378 9.22404C85.4205 9.25338 85.3178 9.29738 85.2298 9.35604C84.8778 9.59071 84.6358 9.70804 84.5038 9.70804C84.3425 9.70804 84.1885 9.53204 84.0418 9.18004C83.9978 9.04804 83.9758 8.92338 83.9758 8.80604C83.9758 8.61538 84.0345 8.46871 84.1518 8.36604C84.2692 8.26338 84.4232 8.15338 84.6138 8.03604C84.8045 7.91871 84.9145 7.84538 84.9438 7.81604C85.1052 7.72804 85.3105 7.63271 85.5598 7.53004C85.8238 7.41271 86.0218 7.33204 86.1538 7.28804C86.3298 7.22938 86.5058 7.20004 86.6818 7.20004C87.1658 7.20004 87.5105 7.43471 87.7158 7.90404C87.9212 8.15338 88.0238 8.41738 88.0238 8.69604C88.0238 8.94538 87.9212 9.29004 87.7158 9.73004L87.4958 10.06C87.4518 10.148 87.4298 10.2067 87.4298 10.236C87.4298 10.2654 87.4372 10.28 87.4518 10.28C87.5105 10.28 87.5765 10.2287 87.6498 10.126C87.7232 10.0527 87.8185 9.96471 87.9358 9.86204C88.0532 9.74471 88.1338 9.68604 88.1778 9.68604C88.1925 9.68604 88.2145 9.67871 88.2438 9.66404C88.2732 9.63471 88.2878 9.57604 88.2878 9.48804L88.5078 9.29004C88.5518 9.29004 88.6325 9.25338 88.7498 9.18004C88.8672 9.09204 89.0285 8.96738 89.2338 8.80604C89.3952 8.68871 89.5418 8.63004 89.6738 8.63004C89.7178 8.61538 89.7838 8.60804 89.8718 8.60804C90.1505 8.60804 90.3778 8.76204 90.5538 9.07004C90.7298 9.36338 90.8178 9.74471 90.8178 10.214L90.3558 11.402L91.1478 10.434C91.2798 10.2727 91.4558 10.0967 91.6758 9.90604C91.7052 9.81804 91.7418 9.76671 91.7858 9.75204C91.8445 9.72271 91.8812 9.70804 91.8958 9.70804C91.9105 9.70804 91.9252 9.70071 91.9398 9.68604C91.9692 9.67138 91.9838 9.64938 91.9838 9.62004C92.0425 9.57604 92.1158 9.52471 92.2038 9.46604C92.3065 9.39271 92.3725 9.33404 92.4018 9.29004C92.5338 9.23138 92.7098 9.20204 92.9298 9.20204C93.1645 9.20204 93.3845 9.25338 93.5898 9.35604C93.7952 9.44404 93.9492 9.59071 94.0518 9.79604C94.0958 9.86938 94.1545 9.97204 94.2278 10.104C94.3158 10.2214 94.3745 10.3387 94.4038 10.456C94.4478 10.5587 94.4698 10.6907 94.4698 10.852L94.3818 11.336C94.3818 11.3214 94.3452 11.5707 94.2718 12.084C94.1985 12.2454 94.1618 12.4947 94.1618 12.832C94.1618 13.0374 94.1692 13.1694 94.1838 13.228C94.2132 13.2867 94.2718 13.316 94.3598 13.316C94.5505 13.272 94.7118 13.206 94.8438 13.118C94.9905 13.03 95.1592 12.898 95.3498 12.722C95.4672 12.6047 95.5845 12.546 95.7018 12.546C95.8338 12.546 95.9438 12.6047 96.0318 12.722C96.1345 12.8247 96.2078 12.9494 96.2518 13.096C96.2958 13.184 96.2152 13.4187 96.0098 13.8C95.8192 14.1814 95.6725 14.372 95.5698 14.372C95.5405 14.372 95.4598 14.4307 95.3278 14.548C95.1958 14.6507 95.0858 14.7314 94.9978 14.79C94.7485 15.0687 94.5432 15.208 94.3818 15.208C94.3232 15.208 94.2425 15.23 94.1398 15.274C94.0518 15.3034 93.9712 15.318 93.8978 15.318Z" fill="white"/>
<path d="M100.199 16C99.3629 16 98.6883 15.7654 98.1749 15.296C97.6616 14.8267 97.4049 14.1594 97.4049 13.294C97.4049 12.9567 97.4269 12.5827 97.4709 12.172C97.5003 11.82 97.6396 11.336 97.8889 10.72C98.1529 10.104 98.5049 9.50271 98.9449 8.91604C99.3996 8.32938 99.9276 7.89671 100.529 7.61804C100.808 7.48604 101.042 7.39804 101.233 7.35404C101.424 7.29538 101.644 7.26604 101.893 7.26604C102.494 7.26604 102.978 7.37604 103.345 7.59604C103.726 7.81604 103.99 8.06538 104.137 8.34404C104.298 8.62271 104.379 8.86471 104.379 9.07004V9.18004V9.24604C104.379 9.42204 104.276 9.74471 104.071 10.214C103.866 10.6834 103.536 11.1234 103.081 11.534C102.641 11.9447 102.069 12.172 101.365 12.216C101.013 12.216 100.668 12.1867 100.331 12.128C100.008 12.0547 99.8029 12.018 99.7149 12.018C99.4949 12.018 99.3556 12.0987 99.2969 12.26C99.2383 12.4214 99.2089 12.6927 99.2089 13.074C99.2529 13.4847 99.3629 13.7707 99.5389 13.932C99.7296 14.0934 100.001 14.174 100.353 14.174C100.529 14.174 100.734 14.1227 100.969 14.02C101.204 13.9027 101.482 13.7194 101.805 13.47C101.981 13.3234 102.12 13.2207 102.223 13.162C102.326 13.1034 102.45 13.074 102.597 13.074C102.729 13.074 102.883 13.162 103.059 13.338C103.235 13.514 103.33 13.6827 103.345 13.844C103.316 14.02 103.154 14.284 102.861 14.636C102.568 14.988 102.186 15.3034 101.717 15.582C101.248 15.8607 100.742 16 100.199 16ZM100.969 10.698C101.248 10.698 101.438 10.6687 101.541 10.61C101.688 10.5367 101.908 10.3534 102.201 10.06C102.509 9.75204 102.67 9.53938 102.685 9.42204C102.685 9.27538 102.619 9.15804 102.487 9.07004C102.37 8.96738 102.201 8.90138 101.981 8.87204H101.739C101.548 8.87204 101.27 9.03338 100.903 9.35604C100.551 9.66404 100.243 10.0234 99.9789 10.434C99.9936 10.5074 100.104 10.5734 100.309 10.632C100.514 10.676 100.734 10.698 100.969 10.698Z" fill="white"/>
<path d="M113.403 16.154C113.3 16.198 113.19 16.22 113.073 16.22C112.897 16.22 112.706 16.176 112.501 16.088C112.295 16.0147 112.156 15.9634 112.083 15.934C111.892 15.934 111.687 15.802 111.467 15.538C111.261 15.274 111.085 14.966 110.939 14.614C110.807 14.262 110.741 13.9834 110.741 13.778C110.682 13.6754 110.653 13.4554 110.653 13.118C110.653 12.7074 110.689 12.216 110.763 11.644C110.851 11.0574 110.931 10.6467 111.005 10.412C110.917 10.324 110.836 10.2214 110.763 10.104C110.704 9.98671 110.667 9.90604 110.653 9.86204L110.609 9.57604L110.741 9.24604C110.741 9.11404 110.748 9.01138 110.763 8.93804C110.821 8.93804 110.924 8.93071 111.071 8.91604C111.217 8.90138 111.342 8.87938 111.445 8.85004C111.914 7.50071 112.486 6.26871 113.161 5.15404C113.85 4.03938 114.664 3.19604 115.603 2.62404C115.852 2.40404 116.109 2.25004 116.373 2.16204C116.637 2.05938 116.981 1.97871 117.407 1.92004L117.847 2.14004C117.891 2.22804 117.993 2.31604 118.155 2.40404C118.565 2.68271 118.851 2.93938 119.013 3.17404C119.189 3.40871 119.277 3.65804 119.277 3.92204C119.277 4.21538 119.13 4.70671 118.837 5.39604C118.763 5.55738 118.595 5.82871 118.331 6.21004C118.023 6.62071 117.854 6.91404 117.825 7.09004C117.707 7.13404 117.575 7.23671 117.429 7.39804C117.297 7.55938 117.201 7.66938 117.143 7.72804L116.769 8.12404C116.666 8.22671 116.497 8.36604 116.263 8.54204C115.969 8.74738 115.771 8.91604 115.669 9.04804C115.463 9.16538 115.28 9.28271 115.119 9.40004C115.031 9.47338 114.899 9.56871 114.723 9.68604C114.855 9.73004 115.009 9.75204 115.185 9.75204C115.419 10.1627 115.588 10.4854 115.691 10.72C115.793 10.94 115.896 11.248 115.999 11.644C115.955 11.7907 115.933 11.9447 115.933 12.106V12.37C115.933 12.5754 115.911 12.7294 115.867 12.832L115.757 13.294C115.595 13.822 115.375 14.328 115.097 14.812C114.818 15.296 114.488 15.6554 114.107 15.89C114.019 15.934 113.784 16.022 113.403 16.154ZM113.843 8.23404C114.913 7.79404 115.771 7.17804 116.417 6.38604C117.077 5.57938 117.407 4.80204 117.407 4.05404C117.407 3.95138 117.392 3.81204 117.363 3.63604C117.231 3.68004 116.923 3.89271 116.439 4.27404C115.969 4.65538 115.691 4.91204 115.603 5.04404C115.427 5.30804 115.243 5.60138 115.053 5.92404L114.657 6.60604C114.334 7.10471 114.063 7.64738 113.843 8.23404ZM113.051 14.592C113.403 14.416 113.652 14.1667 113.799 13.844C113.96 13.5214 114.077 13.2134 114.151 12.92C114.224 12.612 114.275 12.4067 114.305 12.304C114.349 12.1427 114.371 11.9887 114.371 11.842C114.371 11.5487 114.268 11.2114 114.063 10.83C114.048 10.8007 114.004 10.7127 113.931 10.566C113.857 10.4194 113.813 10.28 113.799 10.148L113.227 10.346C112.992 10.4194 112.838 10.852 112.765 11.644C112.706 12.4214 112.677 12.8467 112.677 12.92C112.647 13.1107 112.669 13.382 112.743 13.734C112.816 14.086 112.919 14.372 113.051 14.592Z" fill="white"/>
<path d="M124.373 16.066C123.947 15.9194 123.588 15.648 123.295 15.252C123.001 14.8414 122.789 14.3867 122.657 13.888C122.598 13.9467 122.378 14.174 121.997 14.57C121.615 14.9514 121.219 15.2594 120.809 15.494C120.398 15.7287 120.031 15.8314 119.709 15.802C119.342 15.5674 119.071 15.3767 118.895 15.23C118.719 15.0834 118.594 14.878 118.521 14.614V14.636C118.33 14.1374 118.235 13.6607 118.235 13.206C118.235 12.9274 118.352 12.3407 118.587 11.446C118.836 10.5514 119.107 9.70071 119.401 8.89404C119.694 8.08738 119.929 7.61804 120.105 7.48604L120.479 7.46404C120.611 7.46404 120.794 7.55204 121.029 7.72804C121.278 7.90404 121.439 8.05071 121.513 8.16804C121.542 8.25604 121.557 8.33671 121.557 8.41004C121.557 8.60071 121.505 8.87204 121.403 9.22404C121.3 9.56138 121.153 10.0087 120.963 10.566C120.464 11.9447 120.215 12.8834 120.215 13.382C120.215 13.4847 120.222 13.558 120.237 13.602C120.779 13.4554 121.263 13.14 121.689 12.656C122.114 12.172 122.437 11.6587 122.657 11.116C122.935 10.4267 123.126 9.92071 123.229 9.59804C123.346 9.26071 123.405 8.98938 123.405 8.78404C123.405 8.50538 123.441 8.30004 123.515 8.16804C123.588 8.03604 123.742 7.90404 123.977 7.77204C124.138 7.77204 124.365 7.78671 124.659 7.81604L125.385 8.52004C125.429 8.65204 125.451 8.80604 125.451 8.98204C125.451 9.39271 125.297 10.0307 124.989 10.896C124.813 11.4387 124.681 11.864 124.593 12.172C124.519 12.48 124.483 12.7807 124.483 13.074C124.483 13.4407 124.563 13.756 124.725 14.02C124.959 13.9174 125.187 13.7854 125.407 13.624C125.627 13.448 125.759 13.3454 125.803 13.316C126.008 13.1547 126.235 12.9934 126.485 12.832C126.705 12.9787 126.881 13.228 127.013 13.58C127.159 13.932 127.233 14.2547 127.233 14.548C127.174 14.6214 127.071 14.7167 126.925 14.834C126.749 15.142 126.426 15.4354 125.957 15.714C125.502 15.978 125.084 16.11 124.703 16.11C124.556 16.11 124.446 16.0954 124.373 16.066Z" fill="white"/>
<path d="M136.743 6.84804C136.772 7.25871 136.735 7.78671 136.633 8.43204C136.53 9.07738 136.383 9.59071 136.193 9.97204C135.811 11.4827 135.173 12.8247 134.279 13.998C133.384 15.1714 132.35 15.8827 131.177 16.132C131.06 16.176 130.781 16.11 130.341 15.934C129.916 15.7434 129.6 15.538 129.395 15.318C129.058 14.966 128.889 14.5847 128.889 14.174C128.786 13.9687 128.727 13.712 128.713 13.404C128.713 13.096 128.713 12.898 128.713 12.81C128.713 12.4727 128.779 12.1354 128.911 11.798C129.057 11.446 129.226 11.0867 129.417 10.72C129.578 10.3094 129.908 9.84004 130.407 9.31204C130.92 8.76938 131.411 8.38071 131.881 8.14604C132.042 8.04338 132.255 7.95538 132.519 7.88204C132.797 7.80871 133.076 7.77204 133.355 7.77204C133.56 7.77204 133.788 7.80871 134.037 7.88204C134.184 7.92604 134.315 7.99938 134.433 8.10204C134.55 8.19004 134.675 8.30738 134.807 8.45404C134.924 7.69138 134.983 6.90671 134.983 6.10004C134.983 5.17604 134.873 4.55271 134.653 4.23004C134.433 3.92204 134.139 3.68004 133.773 3.50404C133.406 3.32804 133.032 3.24004 132.651 3.24004C132.357 3.24004 132.071 3.29871 131.793 3.41604C131.617 3.32804 131.485 3.22538 131.397 3.10804C131.309 2.99071 131.236 2.83671 131.177 2.64604C131.192 2.35271 131.294 2.12538 131.485 1.96404C131.69 1.78804 131.991 1.66338 132.387 1.59004C132.651 1.53138 132.878 1.50204 133.069 1.50204C133.391 1.50204 133.67 1.57538 133.905 1.72204C135.005 2.08871 135.745 2.69738 136.127 3.54804C136.508 4.38404 136.713 5.48404 136.743 6.84804ZM133.135 12.26C133.413 11.8934 133.655 11.4607 133.861 10.962C134.066 10.4487 134.169 10.0454 134.169 9.75204C134.169 9.50271 134.044 9.37804 133.795 9.37804C133.619 9.37804 133.399 9.43671 133.135 9.55404C132.871 9.67138 132.614 9.82538 132.365 10.016C131.895 10.3534 131.353 11.0574 130.737 12.128C130.546 12.4654 130.451 12.8907 130.451 13.404C130.451 13.6534 130.487 13.866 130.561 14.042C130.649 14.218 130.773 14.306 130.935 14.306C131.228 14.306 131.529 14.152 131.837 13.844C132.145 13.536 132.416 13.2207 132.651 12.898C132.9 12.5607 133.061 12.348 133.135 12.26Z" fill="white"/>
<path d="M139.223 15.802C138.739 15.6114 138.38 15.318 138.145 14.922C137.925 14.5114 137.815 13.9834 137.815 13.338C137.815 13.1914 137.83 12.9274 137.859 12.546C137.874 12.4287 137.881 12.2894 137.881 12.128C137.881 11.8787 137.852 11.6954 137.793 11.578C137.734 11.446 137.632 11.314 137.485 11.182C137.441 11.138 137.338 11.0427 137.177 10.896C137.016 10.7494 136.942 10.6394 136.957 10.566V10.5C136.957 10.3974 136.979 10.2874 137.023 10.17C137.082 10.038 137.133 9.95738 137.177 9.92804C137.221 9.91338 137.309 9.86938 137.441 9.79604C137.573 9.72271 137.676 9.70071 137.749 9.73004C137.808 9.73004 137.896 9.76671 138.013 9.84004C138.145 9.91338 138.211 9.97938 138.211 10.038C138.299 10.214 138.526 9.92804 138.893 9.18004C139.098 8.87204 139.377 8.57138 139.729 8.27804C140.081 7.97004 140.404 7.73538 140.697 7.57404C140.8 7.53004 141.027 7.47138 141.379 7.39804C141.746 7.31004 142.032 7.26604 142.237 7.26604C142.472 7.26604 142.743 7.36138 143.051 7.55204C143.374 7.74271 143.638 7.94804 143.843 8.16804C144.151 8.38804 144.305 8.80604 144.305 9.42204C144.305 9.78871 144.246 10.104 144.129 10.368C144.07 10.588 143.777 10.9254 143.249 11.38C142.736 11.82 142.318 12.106 141.995 12.238C141.672 12.3114 141.313 12.348 140.917 12.348C140.521 12.348 140.25 12.3114 140.103 12.238C140 12.1794 139.912 12.2087 139.839 12.326C139.78 12.4287 139.729 12.6707 139.685 13.052L139.663 13.272C139.663 13.4334 139.7 13.5874 139.773 13.734C139.876 13.91 139.971 14.0347 140.059 14.108C140.147 14.1814 140.279 14.218 140.455 14.218L140.653 14.196C140.814 14.1814 140.983 14.1007 141.159 13.954C141.35 13.8074 141.57 13.6094 141.819 13.36C142.083 13.1107 142.237 12.964 142.281 12.92C142.354 12.7734 142.552 12.7 142.875 12.7C143.007 12.7 143.176 12.722 143.381 12.766C143.528 12.8834 143.601 13.03 143.601 13.206C143.601 13.4554 143.484 13.7927 143.249 14.218C143.176 14.3647 142.948 14.614 142.567 14.966C142.2 15.318 141.907 15.56 141.687 15.692C141.291 15.912 140.851 16.022 140.367 16.022C140 16.022 139.619 15.9487 139.223 15.802ZM140.851 10.852C141.203 10.764 141.474 10.6614 141.665 10.544C141.87 10.412 142.105 10.1627 142.369 9.79604C142.486 9.44404 142.508 9.23138 142.435 9.15804C142.347 9.07004 142.244 9.02604 142.127 9.02604C141.98 9.02604 141.804 9.10671 141.599 9.26804C141.452 9.31204 141.247 9.45138 140.983 9.68604C140.734 9.90604 140.521 10.126 140.345 10.346C140.169 10.5514 140.118 10.676 140.191 10.72C140.162 10.764 140.235 10.8007 140.411 10.83C140.587 10.8447 140.734 10.852 140.851 10.852Z" fill="white"/>
<path d="M146.899 15.846C146.723 15.846 146.584 15.8167 146.481 15.758C146.378 15.6994 146.232 15.5894 146.041 15.428C145.748 15.12 145.52 14.8047 145.359 14.482C145.198 14.1447 145.139 13.8514 145.183 13.602C145.227 13.4994 145.242 13.3967 145.227 13.294C145.227 13.1914 145.227 13.1254 145.227 13.096C145.168 13.0374 145.139 13.0007 145.139 12.986C145.139 12.9567 145.154 12.9347 145.183 12.92C145.212 12.8907 145.234 12.8614 145.249 12.832C145.337 12.832 145.366 12.7514 145.337 12.59C145.308 12.4727 145.359 12.216 145.491 11.82C145.623 11.424 145.792 11.0574 145.997 10.72C146.158 10.456 146.393 10.126 146.701 9.73004C147.024 9.33404 147.31 9.03338 147.559 8.82804C148.292 8.19738 148.952 7.81604 149.539 7.68404C149.832 7.61071 150.118 7.57404 150.397 7.57404C150.822 7.57404 151.152 7.69138 151.387 7.92604C151.71 8.05804 151.944 8.24871 152.091 8.49804C152.238 8.74738 152.333 9.07738 152.377 9.48804C152.392 9.57604 152.399 9.72271 152.399 9.92804C152.399 11.0134 151.988 12.1427 151.167 13.316C150.83 13.8 150.492 14.1887 150.155 14.482C149.818 14.7754 149.407 15.0687 148.923 15.362C148.659 15.538 148.38 15.6554 148.087 15.714C147.794 15.7727 147.398 15.8167 146.899 15.846ZM149.143 13.162C149.422 12.9127 149.62 12.6634 149.737 12.414C149.869 12.15 150.052 11.6954 150.287 11.05C150.375 10.918 150.419 10.654 150.419 10.258C150.419 9.90604 150.368 9.70804 150.265 9.66404C150.192 9.60538 150.104 9.57604 150.001 9.57604C149.869 9.57604 149.656 9.67871 149.363 9.88404C148.85 10.324 148.417 10.786 148.065 11.27C147.728 11.7394 147.493 12.282 147.361 12.898C147.346 12.9567 147.339 13.0447 147.339 13.162C147.339 13.6607 147.515 13.91 147.867 13.91C148.204 13.91 148.63 13.6607 149.143 13.162Z" fill="white"/>
<path d="M161.518 15.824C161.445 15.8387 161.349 15.846 161.232 15.846C161.041 15.846 160.887 15.8167 160.77 15.758C160.653 15.6847 160.513 15.5674 160.352 15.406C160.015 15.2447 159.721 14.9734 159.472 14.592C159.223 14.2107 159.113 13.91 159.142 13.69C159.215 12.986 159.413 12.2234 159.736 11.402C160.059 10.566 160.477 9.81804 160.99 9.15804C161.518 8.48338 162.075 8.01404 162.662 7.75004C162.926 7.64738 163.168 7.59604 163.388 7.59604C163.843 7.59604 164.143 7.74271 164.29 8.03604C164.393 8.24138 164.444 8.39538 164.444 8.49804C164.444 8.67404 164.341 8.79138 164.136 8.85004C164.092 8.85004 164.041 8.87204 163.982 8.91604C163.923 8.96004 163.894 9.00404 163.894 9.04804C163.909 9.06271 163.975 9.07004 164.092 9.07004C164.341 9.07004 164.649 9.03338 165.016 8.96004C165.383 8.88671 165.617 8.80604 165.72 8.71804C165.808 8.67404 165.881 8.65204 165.94 8.65204L166.248 8.69604C166.497 8.76938 166.622 8.85738 166.622 8.96004C166.622 9.03338 166.644 9.12871 166.688 9.24604C166.747 9.36338 166.798 9.42204 166.842 9.42204C166.915 9.42204 166.952 9.47338 166.952 9.57604C166.952 9.66404 166.901 9.78138 166.798 9.92804C166.71 10.06 166.578 10.192 166.402 10.324C166.329 10.368 166.219 10.434 166.072 10.522C165.94 10.61 165.859 10.6834 165.83 10.742C165.815 10.8007 165.823 10.8814 165.852 10.984C165.911 11.1014 165.94 11.248 165.94 11.424C165.94 11.9227 165.698 12.5094 165.214 13.184C164.73 13.844 164.136 14.4307 163.432 14.944C162.743 15.4574 162.105 15.7507 161.518 15.824ZM161.584 13.976C161.672 13.976 161.892 13.888 162.244 13.712C162.435 13.5214 162.589 13.404 162.706 13.36C162.75 13.36 162.787 13.3234 162.816 13.25C162.86 13.162 162.926 13.0374 163.014 12.876C163.117 12.7 163.278 12.4727 163.498 12.194C163.733 11.93 163.894 11.7174 163.982 11.556C164.085 11.3947 164.136 11.2334 164.136 11.072C164.136 11.0134 164.121 10.9107 164.092 10.764C164.077 10.72 164.026 10.6834 163.938 10.654C163.865 10.61 163.791 10.5734 163.718 10.544C163.645 10.544 163.571 10.566 163.498 10.61C163.425 10.6394 163.373 10.654 163.344 10.654C163.271 10.654 163.19 10.6174 163.102 10.544L162.75 10.104L162.376 10.478C162.039 10.8154 161.753 11.27 161.518 11.842C161.298 12.414 161.166 12.9347 161.122 13.404C161.107 13.6094 161.137 13.756 161.21 13.844C161.298 13.9174 161.423 13.9614 161.584 13.976Z" fill="white"/>
<path d="M178.386 16.11C178.328 16.11 178.24 16.0734 178.122 16L177.572 15.824C177.396 15.5454 177.308 15.2154 177.308 14.834C177.308 14.5554 177.345 14.2767 177.418 13.998C177.506 13.7047 177.594 13.4407 177.682 13.206C177.785 12.9567 177.851 12.7954 177.88 12.722C177.763 12.7514 177.345 12.8394 176.626 12.986C176.245 13.03 175.886 13.096 175.548 13.184L175.262 13.03L175.13 13.668C175.013 14.372 174.874 14.8854 174.712 15.208C174.419 15.2374 174.236 15.252 174.162 15.252C173.957 15.252 173.678 15.1934 173.326 15.076C173.106 14.7827 172.996 14.4454 172.996 14.064C172.996 13.8147 173.033 13.5654 173.106 13.316C173.18 13.0667 173.29 12.7734 173.436 12.436C173.568 12.128 173.664 11.8787 173.722 11.688C173.781 11.4827 173.81 11.2847 173.81 11.094C173.898 11.006 174.14 10.4487 174.536 9.42204C174.947 8.39538 175.167 7.77204 175.196 7.55204C175.211 7.20004 175.387 7.02404 175.724 7.02404C176.018 7.02404 176.318 7.14871 176.626 7.39804C176.934 7.63271 177.088 7.88938 177.088 8.16804C177.088 8.28538 177.052 8.40271 176.978 8.52004L175.988 11.138C176.208 11.1087 176.384 11.0574 176.516 10.984H177.946C178.093 11.0574 178.21 11.138 178.298 11.226C178.562 10.5954 178.775 10.0674 178.936 9.64204C179.098 9.21671 179.222 8.78404 179.31 8.34404C179.384 7.97738 179.626 7.67671 180.036 7.44204C180.124 7.47138 180.293 7.53004 180.542 7.61804C180.792 7.70604 180.982 7.82338 181.114 7.97004C181.261 8.11671 181.356 8.30738 181.4 8.54204C181.371 8.63004 181.334 8.76938 181.29 8.96004C181.261 9.15071 181.224 9.29004 181.18 9.37804L180.806 10.28C180.762 10.3974 180.638 10.7054 180.432 11.204C180.227 11.688 180.058 12.15 179.926 12.59C179.794 13.03 179.692 13.4334 179.618 13.8C179.604 13.844 179.538 14.0714 179.42 14.482C179.303 14.834 179.23 15.098 179.2 15.274C179.156 15.6407 179.002 15.9047 178.738 16.066L178.386 16.11Z" fill="white"/>
<path d="M184.092 15.604C183.842 15.6627 183.542 15.5307 183.19 15.208C182.838 14.8854 182.632 14.5847 182.574 14.306C182.544 14.1594 182.53 14.0347 182.53 13.932C182.53 13.36 182.713 12.6707 183.08 11.864C183.446 11.0427 183.938 10.2727 184.554 9.55404C185.184 8.83538 185.874 8.31471 186.622 7.99204C186.93 7.83071 187.128 7.75004 187.216 7.75004C187.304 7.75004 187.502 7.83071 187.81 7.99204C188.103 8.06538 188.338 8.14604 188.514 8.23404C188.69 8.32204 188.851 8.46138 188.998 8.65204C189.188 9.03338 189.328 9.50271 189.416 10.06C189.504 10.368 189.548 10.588 189.548 10.72C189.548 10.8374 189.504 10.94 189.416 11.028C189.401 11.0427 189.372 11.072 189.328 11.116C189.298 11.16 189.284 11.1967 189.284 11.226C189.284 11.2407 189.298 11.248 189.328 11.248C189.328 11.2627 189.32 11.2994 189.306 11.358C189.291 11.402 189.262 11.468 189.218 11.556C189.042 12.1134 188.954 12.546 188.954 12.854C188.954 12.9567 188.968 13.0814 188.998 13.228C189.144 13.6094 189.328 13.8 189.548 13.8C189.753 13.8 189.988 13.668 190.252 13.404C190.472 13.2574 190.692 13.184 190.912 13.184C191.044 13.184 191.11 13.2207 191.11 13.294C191.124 13.3087 191.154 13.3307 191.198 13.36C191.242 13.3894 191.286 13.404 191.33 13.404C191.388 13.404 191.418 13.47 191.418 13.602C191.418 13.7194 191.388 13.8734 191.33 14.064C191.286 14.2547 191.227 14.4087 191.154 14.526C191.051 14.6287 190.97 14.7167 190.912 14.79C190.853 14.8634 190.824 14.922 190.824 14.966L190.494 15.274C190.215 15.4354 189.885 15.516 189.504 15.516C189.108 15.516 188.792 15.4354 188.558 15.274C188.323 15.1127 188.103 14.9147 187.898 14.68C187.692 14.4307 187.56 14.2107 187.502 14.02L187.392 13.8L186.754 14.218L186.204 14.79C186.086 14.9367 185.984 15.01 185.896 15.01H185.676C185.676 15.1127 185.47 15.2374 185.06 15.384C184.649 15.5307 184.326 15.604 184.092 15.604ZM184.554 13.756C184.715 13.756 185.045 13.5727 185.544 13.206C186.057 12.8247 186.402 12.524 186.578 12.304C186.636 12.2307 186.71 12.128 186.798 11.996C186.9 11.8494 186.988 11.7394 187.062 11.666C187.296 11.3874 187.465 11.1674 187.568 11.006C187.685 10.83 187.744 10.6614 187.744 10.5C187.744 10.3827 187.692 10.2214 187.59 10.016C187.531 9.84004 187.443 9.75204 187.326 9.75204C187.267 9.75204 187.098 9.80338 186.82 9.90604C186.541 10.0674 186.211 10.3974 185.83 10.896C185.463 11.3947 185.14 11.9007 184.862 12.414C184.583 12.9274 184.444 13.3014 184.444 13.536C184.444 13.58 184.458 13.624 184.488 13.668C184.517 13.712 184.539 13.7414 184.554 13.756Z" fill="white"/>
<path d="M195.762 15.802C195.586 15.8754 195.403 15.912 195.212 15.912C194.904 15.912 194.53 15.8314 194.09 15.67C194.031 15.67 193.833 15.5307 193.496 15.252C193.173 14.9587 192.975 14.7314 192.902 14.57C192.726 14.3207 192.638 13.9907 192.638 13.58C192.638 12.876 192.887 11.9154 193.386 10.698C193.547 10.3607 193.811 9.92071 194.178 9.37804C194.559 8.82071 194.816 8.50538 194.948 8.43204C194.992 8.41738 195.095 8.38071 195.256 8.32204C195.417 8.24871 195.601 8.16071 195.806 8.05804C195.909 8.01404 196.121 7.96271 196.444 7.90404C196.767 7.83071 196.994 7.79404 197.126 7.79404C197.405 7.79404 197.713 7.89671 198.05 8.10204C198.387 8.29271 198.651 8.52004 198.842 8.78404C199.047 9.04804 199.121 9.27538 199.062 9.46604C199.047 9.52471 198.967 9.70071 198.82 9.99404C198.673 10.2727 198.556 10.456 198.468 10.544C198.409 10.6174 198.299 10.654 198.138 10.654C197.947 10.654 197.771 10.6027 197.61 10.5C197.449 10.3974 197.361 10.2507 197.346 10.06C197.317 9.97204 197.221 9.87671 197.06 9.77404C196.913 9.67138 196.811 9.60538 196.752 9.57604C196.649 9.57604 196.51 9.67871 196.334 9.88404C196.158 10.0747 195.945 10.3534 195.696 10.72C195.417 10.9987 195.219 11.2994 195.102 11.622C194.999 11.93 194.926 12.216 194.882 12.48C194.853 12.7294 194.823 12.898 194.794 12.986C194.765 13.074 194.75 13.162 194.75 13.25C194.75 13.3967 194.779 13.5434 194.838 13.69C194.897 13.822 194.955 13.8954 195.014 13.91C195.278 13.9247 195.689 13.866 196.246 13.734C196.818 13.5874 197.324 13.426 197.764 13.25C197.969 13.118 198.189 13.052 198.424 13.052C198.527 13.052 198.629 13.0667 198.732 13.096C198.835 13.1107 198.908 13.1254 198.952 13.14C199.099 13.1987 199.172 13.3307 199.172 13.536C199.172 13.7267 199.106 13.9247 198.974 14.13C198.842 14.3354 198.659 14.504 198.424 14.636C198.175 14.768 197.962 14.9 197.786 15.032C197.61 15.164 197.522 15.2667 197.522 15.34C197.493 15.34 197.434 15.362 197.346 15.406C197.258 15.4354 197.199 15.4427 197.17 15.428C197.009 15.4427 196.759 15.494 196.422 15.582C196.085 15.67 195.865 15.7434 195.762 15.802Z" fill="white"/>
</svg>
